<svg
	xmlns="http://www.w3.org/2000/svg" viewBox="0 0 200 80" clip-path="url(#clip)" width="200" height="80">
	<defs>
		<clipPath id="clip" clipPathUnits="objectBoundingBox">
			<rect x="0" y="0" width="200" height="80"/>
		</clipPath>
	</defs>
	<g id="&#x56FE;&#x5C42;_1">
		<g>
			<rect id="back_1_" x="-0.193" y="-0.043" style="fill:#001F44;" width="200.079" height="79.909"/>
			<g>
				<g id="stars_5_">
					<rect x="77.05" y="51.953" style="fill:#15819E;" width="0.623" height="0.623"/>
					<rect x="44.465" y="38.091" style="fill:#15819E;" width="0.554" height="0.554"/>
					<rect x="19.82" y="11.573" style="fill:#15819E;" width="0.554" height="0.554"/>
					<rect x="37.844" y="18.093" style="fill:#15819E;" width="0.792" height="0.792"/>
					<rect x="4.12" y="12.862" style="fill:#15819E;" width="0.831" height="0.831"/>
					<rect x="10.772" y="23.401" style="fill:#15819E;" width="0.792" height="0.792"/>
					<rect x="24.042" y="29.252" style="fill:#15819E;" width="0.792" height="0.792"/>
					<rect x="71.762" y="22.634" style="fill:#15819E;" width="0.831" height="0.831"/>
					<rect x="48.977" y="9.726" style="fill:#15819E;" width="0.792" height="0.792"/>
					<rect x="58.946" y="36.849" style="fill:#15819E;" width="0.831" height="0.831"/>
					<rect x="10.091" y="2.749" style="fill:#15819E;" width="0.554" height="0.554"/>
					<rect x="26.812" y="18.302" style="fill:#15819E;" width="0.528" height="0.528"/>
					<rect x="43.831" y="20.017" style="fill:#15819E;" width="0.792" height="0.792"/>
					<rect x="61.46" y="12.816" style="fill:#15819E;" width="0.831" height="0.831"/>
					<rect x="54.982" y="55.354" style="fill:#15819E;" width="0.831" height="0.83"/>
					<rect x="53.505" y="68.49" style="fill:#15819E;" width="0.831" height="0.83"/>
					<rect x="81.695" y="32.638" style="fill:#15819E;" width="0.792" height="0.792"/>
					<rect x="27.413" y="58.288" style="fill:#15819E;" width="0.528" height="0.528"/>
					<rect x="43.165" y="63.653" style="fill:#15819E;" width="0.528" height="0.528"/>
					<rect x="3.593" y="61.311" style="fill:#15819E;" width="0.528" height="0.528"/>
					<rect x="30.637" y="67.963" style="fill:#15819E;" width="0.831" height="0.831"/>
					<rect x="83.22" y="22.324" style="fill:#15819E;" width="0.554" height="0.554"/>
					<rect x="85.961" y="40.774" style="fill:#15819E;" width="0.792" height="0.792"/>
					<rect x="60.56" y="19.621" style="fill:#15819E;" width="0.554" height="0.554"/>
					<rect x="45.866" y="46.652" style="fill:#15819E;" width="0.554" height="0.554"/>
					<rect x="84.324" y="54.688" style="fill:#15819E;" width="0.528" height="0.528"/>
					<rect x="60.946" y="46.649" style="fill:#15819E;" width="0.831" height="0.831"/>
					<rect x="77.034" y="6.34" style="fill:#15819E;" width="0.831" height="0.831"/>
					<rect x="68.808" y="60.111" style="fill:#15819E;" width="0.554" height="0.554"/>
					<rect x="81.857" y="11.829" style="fill:#15819E;" width="0.831" height="0.831"/>
					<rect x="56.772" y="1.465" style="fill:#15819E;" width="0.554" height="0.554"/>
					<rect x="34.306" y="11.573" style="fill:#15819E;" width="0.554" height="0.554"/>
					<rect x="18.105" y="38.355" style="fill:#15819E;" width="0.792" height="0.792"/>
					<rect x="5.386" y="45.677" style="fill:#15819E;" width="0.792" height="0.792"/>
					<rect x="38.54" y="28.746" style="fill:#15819E;" width="0.528" height="0.528"/>
					<rect x="35.018" y="50.385" style="fill:#15819E;" width="0.792" height="0.792"/>
					<rect x="6.671" y="31.846" style="fill:#15819E;" width="0.528" height="0.528"/>
					<rect x="80.84" y="63.622" style="fill:#15819E;" width="0.831" height="0.83"/>
					<rect x="71.834" y="34.465" style="fill:#15819E;" width="0.528" height="0.528"/>
				</g>
				<g id="stars_4_">
					<rect x="169.24" y="53.017" style="fill:#15819E;" width="0.623" height="0.623"/>
					<rect x="136.655" y="39.155" style="fill:#15819E;" width="0.554" height="0.554"/>
					<rect x="112.01" y="12.637" style="fill:#15819E;" width="0.554" height="0.554"/>
					<rect x="130.034" y="19.157" style="fill:#15819E;" width="0.792" height="0.792"/>
					<rect x="96.31" y="13.926" style="fill:#15819E;" width="0.831" height="0.831"/>
					<rect x="102.962" y="24.465" style="fill:#15819E;" width="0.792" height="0.792"/>
					<rect x="116.232" y="30.315" style="fill:#15819E;" width="0.792" height="0.792"/>
					<rect x="163.952" y="23.698" style="fill:#15819E;" width="0.831" height="0.831"/>
					<rect x="141.167" y="10.79" style="fill:#15819E;" width="0.792" height="0.792"/>
					<rect x="151.136" y="37.913" style="fill:#15819E;" width="0.831" height="0.831"/>
					<rect x="102.281" y="3.812" style="fill:#15819E;" width="0.554" height="0.554"/>
					<rect x="119.002" y="19.365" style="fill:#15819E;" width="0.528" height="0.528"/>
					<rect x="136.021" y="21.081" style="fill:#15819E;" width="0.792" height="0.792"/>
					<rect x="153.65" y="13.88" style="fill:#15819E;" width="0.831" height="0.831"/>
					<rect x="147.172" y="56.418" style="fill:#15819E;" width="0.831" height="0.83"/>
					<rect x="145.695" y="69.554" style="fill:#15819E;" width="0.831" height="0.83"/>
					<rect x="173.885" y="33.702" style="fill:#15819E;" width="0.792" height="0.792"/>
					<rect x="119.603" y="59.352" style="fill:#15819E;" width="0.528" height="0.528"/>
					<rect x="135.355" y="64.717" style="fill:#15819E;" width="0.528" height="0.528"/>
					<rect x="95.783" y="62.375" style="fill:#15819E;" width="0.528" height="0.528"/>
					<rect x="122.827" y="69.026" style="fill:#15819E;" width="0.831" height="0.831"/>
					<rect x="175.41" y="23.388" style="fill:#15819E;" width="0.554" height="0.554"/>
					<rect x="178.151" y="41.837" style="fill:#15819E;" width="0.792" height="0.792"/>
					<rect x="152.75" y="20.685" style="fill:#15819E;" width="0.554" height="0.554"/>
					<rect x="138.056" y="47.716" style="fill:#15819E;" width="0.554" height="0.554"/>
					<rect x="176.514" y="55.752" style="fill:#15819E;" width="0.528" height="0.528"/>
					<rect x="153.136" y="47.713" style="fill:#15819E;" width="0.831" height="0.831"/>
					<rect x="169.224" y="7.404" style="fill:#15819E;" width="0.831" height="0.831"/>
					<rect x="160.998" y="61.175" style="fill:#15819E;" width="0.554" height="0.554"/>
					<rect x="174.047" y="12.893" style="fill:#15819E;" width="0.831" height="0.831"/>
					<rect x="148.962" y="2.529" style="fill:#15819E;" width="0.554" height="0.554"/>
					<rect x="126.496" y="12.637" style="fill:#15819E;" width="0.554" height="0.554"/>
					<rect x="110.295" y="39.419" style="fill:#15819E;" width="0.792" height="0.792"/>
					<rect x="97.576" y="46.741" style="fill:#15819E;" width="0.792" height="0.792"/>
					<rect x="130.73" y="29.809" style="fill:#15819E;" width="0.528" height="0.528"/>
					<rect x="127.208" y="51.449" style="fill:#15819E;" width="0.792" height="0.792"/>
					<rect x="98.861" y="32.91" style="fill:#15819E;" width="0.528" height="0.528"/>
					<rect x="173.03" y="64.686" style="fill:#15819E;" width="0.831" height="0.83"/>
					<rect x="164.024" y="35.529" style="fill:#15819E;" width="0.528" height="0.528"/>
				</g>
				<g id="stars_3_">
					<rect x="187.062" y="15.154" style="fill:#15819E;" width="0.831" height="0.831"/>
					<rect x="193.713" y="25.693" style="fill:#15819E;" width="0.792" height="0.792"/>
					<rect x="193.033" y="5.04" style="fill:#15819E;" width="0.554" height="0.554"/>
					<rect x="186.534" y="63.602" style="fill:#15819E;" width="0.528" height="0.528"/>
					<rect x="194.566" y="56.269" style="fill:#15819E;" width="0.792" height="0.792"/>
					<rect x="188.327" y="47.969" style="fill:#15819E;" width="0.792" height="0.792"/>
					<rect x="189.613" y="34.138" style="fill:#15819E;" width="0.528" height="0.528"/>
				</g>
			</g>
			<g>
				<g>
					<g>
						<rect x="79.535" y="45.617" style="fill:#00CCDB;" width="120.011" height="15.932"/>
						<rect x="79.535" y="61.549" style="fill:#0095C7;" width="120.011" height="18.383"/>
						<rect x="79.535" y="71.728" style="fill:#004BC0;" width="120.011" height="8.204"/>
						<polygon style="fill:#004BC0;" points="195.646,71.016 199.546,71.016 199.546,69.178 197.045,69.178 197.045,63.458 
						190.514,63.458 190.514,66.727 183.282,66.727 183.282,61.549 180.716,61.549 180.716,65.91 177.451,65.91 177.451,67.544 
						173.251,67.544 173.251,65.91 166.953,65.91 166.953,68.361 160.889,68.361 160.889,61.549 159.722,61.549 159.722,65.501 
						152.49,65.501 152.49,69.79 143.626,69.79 143.626,66.522 137.795,66.522 137.795,64.684 135.928,64.684 135.928,71.016 
						129.397,71.016 129.397,66.931 126.131,66.931 126.131,69.995 120.299,69.995 120.299,66.522 114.934,66.522 114.934,63.662 
						112.835,63.662 112.835,65.91 110.969,65.91 110.969,69.178 107.003,69.178 107.003,65.91 101.871,65.91 101.871,69.995 
						97.905,69.995 97.905,64.684 90.441,64.684 90.441,66.931 84.143,66.931 84.143,70.608 79.535,70.608 79.535,74.284 
						85.075,74.284 85.075,79.932 88.108,79.932 88.108,72.446 92.54,72.446 92.54,76.123 95.806,76.123 95.806,73.672 
						103.038,73.672 103.038,76.94 106.536,76.94 106.536,73.876 113.301,73.876 113.301,77.553 118.433,77.553 118.433,74.897 
						122.865,74.897 122.865,75.715 129.397,75.715 129.397,73.672 140.827,73.672 140.827,72.446 155.056,72.446 155.056,76.94 
						157.156,76.94 157.156,74.489 168.586,74.489 168.586,79.932 173.018,79.932 173.018,71.016 177.684,71.016 177.684,75.306 
						181.183,75.306 181.183,72.242 189.347,72.242 189.347,78.37 194.945,78.37 194.945,75.715 195.646,75.715 					"/>
					</g>
					<path style="fill:#0081CB;" d="M195.127,65.021h1.153v-0.047C195.895,64.984,195.511,65,195.127,65.021z"/>
					<rect x="112.718" y="69.413" style="fill:#0095C7;" width="3.091" height="2.656"/>
					<rect x="119.658" y="71.489" style="fill:#0095C7;" width="3.09" height="2.656"/>
					<rect x="138.514" y="67.813" style="fill:#0095C7;" width="3.091" height="2.656"/>
					<rect x="135.462" y="71.728" style="fill:#0095C7;" width="3.091" height="2.656"/>
					<rect x="147.009" y="68.664" style="fill:#0095C7;" width="3.091" height="2.656"/>
					<rect x="156.339" y="69.413" style="fill:#0095C7;" width="3.091" height="2.656"/>
					<rect x="161.588" y="70.74" style="fill:#0095C7;" width="3.091" height="2.656"/>
					<rect x="168.878" y="67.336" style="fill:#0095C7;" width="3.091" height="2.656"/>
					<rect x="176.897" y="68.255" style="fill:#0095C7;" width="3.091" height="2.656"/>
					<rect x="189.338" y="67.336" style="fill:#0095C7;" width="3.091" height="2.656"/>
					<rect x="183.216" y="69.637" style="fill:#0095C7;" width="3.091" height="2.656"/>
					<rect x="171.07" y="75.064" style="fill:#0095C7;" width="3.09" height="2.656"/>
					<rect x="106.536" y="72.068" style="fill:#0095C7;" width="3.091" height="2.656"/>
					<rect x="95.806" y="72.26" style="fill:#0095C7;" width="3.091" height="2.656"/>
					<rect x="90.363" y="66.757" style="fill:#0095C7;" width="3.091" height="2.655"/>
					<rect x="82.276" y="70.536" style="fill:#0095C7;" width="3.091" height="2.655"/>
					<polygon style="fill:#00B3C9;" points="196.112,49.773 196.112,52.224 193.779,52.224 193.779,54.675 188.414,54.675 
					188.414,56.717 183.282,56.717 183.282,53.245 180.949,53.245 180.949,52.224 176.284,52.224 176.284,50.998 172.085,50.998 
					172.085,54.062 169.986,54.062 169.986,58.556 167.653,58.556 167.653,54.062 163.921,54.062 163.921,49.977 161.355,49.977 
					161.355,55.696 152.957,55.696 152.957,50.181 145.259,50.181 145.259,54.266 141.06,54.266 141.06,56.309 135.695,56.309 
					135.695,53.653 133.829,53.653 133.829,54.879 128.464,54.879 128.464,48.342 123.566,48.342 123.566,51.611 116.334,51.611 
					116.334,53.858 105.837,53.858 105.837,59.577 101.171,59.577 101.171,51.611 95.106,51.611 95.106,54.471 87.175,54.471 
					87.175,58.556 79.535,58.556 79.535,61.549 85.542,61.549 85.542,62.877 89.275,62.877 89.275,61.549 93.707,61.549 
					93.707,62.877 97.439,62.877 97.439,61.549 100.122,61.549 100.122,63.643 103.854,63.643 103.854,61.549 107.936,61.549 
					107.936,63.081 111.668,63.081 111.668,61.549 119.016,61.549 119.016,62.948 122.748,62.948 122.748,61.549 133.595,61.549 
					133.595,63.643 137.328,63.643 137.328,61.549 141.177,61.549 141.177,62.948 144.909,62.948 144.909,61.549 154.823,61.549 
					154.823,63.643 158.556,63.643 158.556,62.948 162.288,62.948 162.288,61.549 165.145,61.549 165.145,63.643 168.878,63.643 
					168.878,61.549 170.749,61.549 170.749,62.877 174.481,62.877 174.481,61.549 176.576,61.549 176.576,63.643 180.308,63.643 
					180.308,61.549 190.339,61.549 190.339,62.06 194.071,62.06 194.071,61.549 199.546,61.549 199.546,49.773 				"/>
					<polygon style="fill:#00CCDB;" points="199.546,36.919 196.112,36.919 196.112,39.37 193.779,39.37 193.779,41.821 
					188.414,41.821 188.414,43.864 183.282,43.864 183.282,40.391 180.949,40.391 180.949,39.37 176.284,39.37 176.284,38.144 
					172.085,38.144 172.085,41.208 169.986,41.208 169.986,45.702 167.653,45.702 167.653,41.208 163.921,41.208 163.921,37.123 
					161.355,37.123 161.355,42.842 152.957,42.842 152.957,37.327 145.259,37.327 145.259,41.412 141.06,41.412 141.06,43.455 
					135.695,43.455 135.695,40.8 133.829,40.8 133.829,42.025 128.464,42.025 128.464,35.489 123.566,35.489 123.566,38.757 
					116.334,38.757 116.334,41.004 105.837,41.004 105.837,46.723 101.171,46.723 101.171,38.757 95.106,38.757 95.106,41.617 
					87.175,41.617 87.175,45.702 79.535,45.702 79.535,48.695 85.542,48.695 85.542,50.023 89.275,50.023 89.275,48.695 
					100.121,48.695 100.121,50.789 103.854,50.789 103.854,48.695 107.936,48.695 107.936,50.227 111.668,50.227 111.668,48.695 
					119.016,48.695 119.016,50.094 122.748,50.094 122.748,48.695 133.595,48.695 133.595,50.789 137.328,50.789 137.328,48.695 
					141.177,48.695 141.177,50.094 144.909,50.094 144.909,48.695 154.823,48.695 154.823,50.789 158.556,50.789 158.556,48.695 
					165.145,48.695 165.145,50.789 168.878,50.789 168.878,48.695 176.576,48.695 176.576,50.789 180.308,50.789 180.308,48.695 
					190.339,48.695 190.339,49.206 194.071,49.206 194.071,48.695 199.546,48.695 				"/>
				</g>
				<g>
					<g>
						<rect x="0.16" y="45.617" style="fill:#00CCDB;" width="96.838" height="15.932"/>
						<rect x="0.16" y="61.549" style="fill:#0095C7;" width="96.838" height="18.383"/>
						<rect x="0.16" y="71.728" style="fill:#004BC0;" width="96.838" height="8.204"/>
						<polygon style="fill:#004BC0;" points="96.998,67.544 93.877,67.544 93.877,65.91 87.579,65.91 87.579,68.361 81.514,68.361 
						81.514,61.549 80.348,61.549 80.348,65.501 73.116,65.501 73.116,69.79 64.252,69.79 64.252,66.522 58.42,66.522 58.42,64.684 
						56.554,64.684 56.554,71.016 50.022,71.016 50.022,66.931 46.756,66.931 46.756,69.995 40.925,69.995 40.925,66.522 
						35.56,66.522 35.56,63.662 33.46,63.662 33.46,65.91 31.594,65.91 31.594,69.178 27.629,69.178 27.629,65.91 22.497,65.91 
						22.497,69.995 18.531,69.995 18.531,64.684 11.066,64.684 11.066,66.931 4.768,66.931 4.768,70.608 0.16,70.608 0.16,74.284 
						5.701,74.284 5.701,79.932 8.734,79.932 8.734,72.446 13.166,72.446 13.166,76.123 16.432,76.123 16.432,73.672 23.663,73.672 
						23.663,76.94 27.162,76.94 27.162,73.876 33.927,73.876 33.927,77.553 39.059,77.553 39.059,74.897 43.491,74.897 
						43.491,75.715 50.022,75.715 50.022,73.672 61.453,73.672 61.453,72.446 75.682,72.446 75.682,76.94 77.782,76.94 
						77.782,74.489 89.212,74.489 89.212,79.932 93.644,79.932 93.644,71.016 96.998,71.016 					"/>
					</g>
					<rect x="33.344" y="69.413" style="fill:#0095C7;" width="3.091" height="2.656"/>
					<rect x="40.284" y="71.489" style="fill:#0095C7;" width="3.09" height="2.656"/>
					<rect x="59.139" y="67.813" style="fill:#0095C7;" width="3.091" height="2.656"/>
					<rect x="56.088" y="71.728" style="fill:#0095C7;" width="3.091" height="2.656"/>
					<rect x="67.634" y="68.664" style="fill:#0095C7;" width="3.091" height="2.656"/>
					<rect x="76.965" y="69.413" style="fill:#0095C7;" width="3.091" height="2.656"/>
					<rect x="82.213" y="70.74" style="fill:#0095C7;" width="3.091" height="2.656"/>
					<rect x="89.503" y="67.336" style="fill:#0095C7;" width="3.091" height="2.656"/>
					<rect x="91.696" y="75.064" style="fill:#0095C7;" width="3.091" height="2.656"/>
					<rect x="27.162" y="72.068" style="fill:#0095C7;" width="3.091" height="2.656"/>
					<rect x="16.432" y="72.26" style="fill:#0095C7;" width="3.091" height="2.656"/>
					<rect x="10.988" y="66.757" style="fill:#0095C7;" width="3.091" height="2.655"/>
					<rect x="2.902" y="70.536" style="fill:#0095C7;" width="3.091" height="2.655"/>
					<polygon style="fill:#00B3C9;" points="96.998,52.224 96.91,52.224 96.91,50.998 92.71,50.998 92.71,54.062 90.611,54.062 
					90.611,58.556 88.279,58.556 88.279,54.062 84.546,54.062 84.546,49.977 81.98,49.977 81.98,55.696 73.583,55.696 
					73.583,50.181 65.884,50.181 65.884,54.266 61.686,54.266 61.686,56.309 56.321,56.309 56.321,53.653 54.455,53.653 
					54.455,54.879 49.089,54.879 49.089,48.342 44.191,48.342 44.191,51.611 36.959,51.611 36.959,53.858 26.462,53.858 
					26.462,59.577 21.797,59.577 21.797,51.611 15.732,51.611 15.732,54.471 7.801,54.471 7.801,58.556 0.16,58.556 0.16,61.549 
					6.168,61.549 6.168,62.877 9.9,62.877 9.9,61.549 14.332,61.549 14.332,62.877 18.064,62.877 18.064,61.549 20.747,61.549 
					20.747,63.643 24.479,63.643 24.479,61.549 28.561,61.549 28.561,63.081 32.294,63.081 32.294,61.549 39.642,61.549 
					39.642,62.948 43.374,62.948 43.374,61.549 54.221,61.549 54.221,63.643 57.953,63.643 57.953,61.549 61.803,61.549 
					61.803,62.948 65.535,62.948 65.535,61.549 75.449,61.549 75.449,63.643 79.181,63.643 79.181,62.948 82.914,62.948 
					82.914,61.549 85.771,61.549 85.771,63.643 89.503,63.643 89.503,61.549 91.375,61.549 91.375,62.877 95.107,62.877 
					95.107,61.549 96.998,61.549 				"/>
					<polygon style="fill:#00CCDB;" points="96.998,39.37 96.91,39.37 96.91,38.144 92.71,38.144 92.71,41.208 90.611,41.208 
					90.611,45.702 88.279,45.702 88.279,41.208 84.546,41.208 84.546,37.123 81.98,37.123 81.98,42.842 73.583,42.842 
					73.583,37.327 65.884,37.327 65.884,41.412 61.686,41.412 61.686,43.455 56.321,43.455 56.321,40.8 54.455,40.8 54.455,42.025 
					49.089,42.025 49.089,35.489 44.191,35.489 44.191,38.757 36.959,38.757 36.959,41.004 26.462,41.004 26.462,46.723 
					21.797,46.723 21.797,38.757 15.732,38.757 15.732,41.617 7.801,41.617 7.801,45.702 0.16,45.702 0.16,48.695 6.168,48.695 
					6.168,50.023 9.9,50.023 9.9,48.695 20.747,48.695 20.747,50.789 24.479,50.789 24.479,48.695 28.561,48.695 28.561,50.227 
					32.294,50.227 32.294,48.695 39.642,48.695 39.642,50.094 43.374,50.094 43.374,48.695 54.221,48.695 54.221,50.789 
					57.953,50.789 57.953,48.695 61.803,48.695 61.803,50.094 65.535,50.094 65.535,48.695 75.449,48.695 75.449,50.789 
					79.181,50.789 79.181,48.695 85.771,48.695 85.771,50.789 89.503,50.789 89.503,48.695 96.998,48.695 				"/>
				</g>
			</g>
			<g>
				<polygon points="164.283,55.283 164.565,56.524 165.805,56.243 166.368,58.724 167.609,58.442 167.046,55.961 169.526,55.398 
				169.808,56.638 168.568,56.919 168.85,58.16 167.609,58.442 167.89,59.683 171.612,58.838 171.33,57.597 172.57,57.316 
				172.289,56.075 173.53,55.793 173.811,57.034 175.052,56.752 174.489,54.272 176.97,53.708 177.251,54.948 176.01,55.23 
				176.292,56.471 175.052,56.752 175.334,57.993 179.055,57.149 178.773,55.908 180.014,55.626 179.451,53.145 180.692,52.864 
				180.41,51.623 			"/>
				<g>
					<polygon style="fill:#FFFFFF;" points="174.489,54.272 175.052,56.752 176.292,56.471 176.01,55.23 177.251,54.948 
					176.97,53.708 				"/>
					<polygon style="fill:#FFFFFF;" points="167.046,55.961 167.609,58.442 168.85,58.16 168.568,56.919 169.808,56.638 
					169.526,55.398 				"/>
				</g>
			</g>
			<g>
				<path style="fill:#0009AA;" d="M189.712,19.712l0.307,1.44l-0.719,0.153l0.153,0.719l-0.72,0.153l0.153,0.72l-0.72,0.153
				l-0.153-0.72l-0.719,0.153l-0.153-0.719l-0.72,0.153l-0.46-2.16l1.44-0.307l0.153,0.719l0.72-0.153l-0.153-0.719l1.44-0.307
				l-0.153-0.72l-0.719,0.153l-0.153-0.719l-1.44,0.307l-0.153-0.72l-3.6,0.767l0.153,0.72l-1.44,0.307l0.153,0.719l-0.719,0.153
				l0.153,0.72l1.44-0.307l0.153,0.719l0.719-0.153l-0.153-0.719l1.44-0.307l0.46,2.16l-0.72,0.153l0.153,0.719l-0.72,0.153
				l0.153,0.72l-0.719,0.153l-0.153-0.72l-0.72,0.153l-0.153-0.719l-0.719,0.153l-0.307-1.44l-0.72,0.153l0.767,3.6l0.72-0.153
				l0.307,1.44l0.719-0.153l0.153,0.719l1.44-0.307l0.153,0.72l3.6-0.767l-0.153-0.72l1.44-0.307l-0.153-0.719l0.719-0.153
				l-0.307-1.44l0.72-0.153l-0.767-3.6L189.712,19.712z M185.439,24.385l0.153,0.72l0.72-0.153l0.719-0.153l0.72-0.153l-0.153-0.72
				l0.719-0.153l0.153,0.72l-0.719,0.153l0.153,0.72l-0.72,0.153l-0.719,0.153l-0.72,0.153l-0.153-0.72l-0.72,0.153l-0.153-0.72
				L185.439,24.385z"/>
				<g>
					<polygon style="fill:#00CCDB;" points="188.119,19.299 188.272,20.019 187.552,20.172 187.398,19.453 185.959,19.759 
					186.419,21.919 187.139,21.766 187.292,22.485 188.012,22.332 188.165,23.052 188.885,22.899 188.732,22.179 189.452,22.025 
					189.299,21.306 190.018,21.153 189.558,18.993 				"/>
					<polygon style="fill:#00CCDB;" points="183.799,20.219 183.952,20.939 183.233,21.092 183.079,20.373 181.64,20.679 
					182.1,22.839 182.819,22.686 182.973,23.406 183.693,23.252 183.846,23.972 184.566,23.819 184.412,23.099 185.132,22.945 
					184.979,22.226 185.699,22.073 185.239,19.913 				"/>
				</g>
				<g>
					<rect x="187.668" y="23.84" transform="matrix(0.9781 -0.2083 0.2083 0.9781 -0.9174 39.7066)" style="fill:#001F44;" width="0.736" height="0.736"/>
					<rect x="185.645" y="24.867" transform="matrix(0.9781 -0.2083 0.2083 0.9781 -1.1596 39.4612)" style="fill:#001F44;" width="2.208" height="0.736"/>
					<rect x="184.788" y="24.454" transform="matrix(0.9781 -0.2083 0.2083 0.9781 -1.1084 39.1201)" style="fill:#001F44;" width="0.736" height="0.736"/>
				</g>
			</g>
			<g>
				<polygon style="fill:#0058D8;" points="5.697,30.324 6.003,31.308 6.986,31.002 7.598,32.968 8.581,32.662 7.969,30.696 
				9.936,30.084 10.241,31.066 9.259,31.372 9.565,32.356 8.581,32.662 8.888,33.646 11.838,32.727 11.531,31.744 12.514,31.438 
				12.208,30.454 13.191,30.148 13.497,31.132 14.481,30.825 13.869,28.859 15.835,28.247 16.141,29.23 15.157,29.536 
				15.464,30.519 14.481,30.825 14.787,31.809 17.736,30.891 17.43,29.907 18.414,29.601 17.801,27.635 18.785,27.329 
				18.479,26.345 			"/>
				<g>
					<polygon style="fill:#FFFFFF;" points="13.869,28.859 14.481,30.825 15.464,30.519 15.157,29.536 16.141,29.23 15.835,28.247 
									"/>
					<polygon style="fill:#FFFFFF;" points="7.969,30.696 8.581,32.662 9.565,32.356 9.259,31.372 10.241,31.066 9.936,30.084 				
					"/>
				</g>
			</g>
			<g>
				<path style="fill:#E2336D;" d="M21.693,54.58l0.327,1.536l-0.767,0.163l0.163,0.767l-0.768,0.164l0.164,0.768l-0.768,0.164
				l-0.164-0.768l-0.767,0.163l-0.163-0.767l-0.768,0.164l-0.491-2.303l1.535-0.327l0.163,0.767l0.768-0.164l-0.163-0.767
				l1.535-0.327l-0.164-0.768l-0.767,0.163l-0.163-0.767l-1.536,0.327L18.736,52l-3.839,0.818l0.164,0.768l-1.535,0.327l0.163,0.767
				l-0.767,0.163l0.164,0.768l1.535-0.327l0.163,0.767l0.767-0.163l-0.163-0.767l1.536-0.327l0.491,2.303l-0.768,0.164l0.163,0.767
				l-0.768,0.164l0.164,0.768l-0.767,0.163l-0.164-0.768l-0.768,0.164l-0.163-0.767l-0.767,0.163l-0.327-1.536l-0.768,0.164
				l0.818,3.839l0.768-0.164l0.327,1.536l0.767-0.163l0.163,0.767l1.535-0.327l0.164,0.768l3.839-0.818l-0.164-0.768l1.536-0.327
				l-0.163-0.767l0.767-0.163l-0.327-1.536l0.768-0.164l-0.818-3.839L21.693,54.58z M17.137,59.564l0.164,0.768l0.768-0.164
				l0.767-0.163l0.768-0.164l-0.164-0.768l0.767-0.163l0.164,0.768l-0.767,0.163l0.164,0.768l-0.768,0.164l-0.767,0.163L17.464,61.1
				L17.3,60.332l-0.768,0.164l-0.164-0.768L17.137,59.564z"/>
				<g>
					<polygon style="fill:#FFFFFF;" points="19.994,54.14 20.158,54.907 19.39,55.071 19.226,54.304 17.691,54.631 18.182,56.934 
					18.95,56.771 19.113,57.538 19.88,57.374 20.044,58.142 20.812,57.979 20.648,57.211 21.416,57.047 21.253,56.28 22.02,56.116 
					21.53,53.813 				"/>
					<polygon style="fill:#FFFFFF;" points="15.388,55.121 15.551,55.889 14.784,56.052 14.62,55.285 13.085,55.612 13.576,57.915 
					14.343,57.752 14.506,58.519 15.274,58.355 15.438,59.124 16.205,58.96 16.042,58.192 16.81,58.028 16.646,57.261 
					17.414,57.098 16.924,54.794 				"/>
				</g>
				<g>
					<rect x="19.513" y="58.983" transform="matrix(0.9781 -0.2083 0.2083 0.9781 -11.9335 5.45)" style="fill:#FFFFFF;" width="0.784" height="0.785"/>
					<rect x="17.356" y="60.078" transform="matrix(0.9781 -0.2083 0.2083 0.9781 -12.1917 5.1883)" style="fill:#FFFFFF;" width="2.355" height="0.785"/>
					<rect x="16.442" y="59.637" transform="matrix(0.9781 -0.2083 0.2083 0.9781 -12.1372 4.8246)" style="fill:#FFFFFF;" width="0.785" height="0.785"/>
				</g>
			</g>
			<g>
				<rect x="42.869" y="17.967" transform="matrix(-1.836970e-16 1 -1 -1.836970e-16 64.9094 -23.7075)" style="fill:#00CCDB;" width="2.879" height="5.268"/>
				<rect x="42.397" y="18.397" style="fill:#00CCDB;" width="0.763" height="0.763"/>
				<g>
					<rect x="44.531" y="19.126" style="fill:#FFFFFF;" width="0.763" height="0.763"/>
					<rect x="45.292" y="19.891" style="fill:#FFFFFF;" width="0.763" height="1.473"/>
				</g>
				<rect x="42.919" y="18.397" style="fill:#00CCDB;" width="3.859" height="0.763"/>
				<rect x="43.153" y="17.65" style="fill:#00CCDB;" width="2.879" height="0.763"/>
				<rect x="45.726" y="20.219" transform="matrix(-1.836970e-16 1 -1 -1.836970e-16 67.7671 -26.5651)" style="fill:#00CCDB;" width="2.879" height="0.763"/>
				<rect x="40.294" y="22.744" style="fill:#00CCDB;" width="5.756" height="0.763"/>
				<rect x="46.028" y="22.025" style="fill:#00CCDB;" width="0.763" height="0.763"/>
				<rect x="40.961" y="22.025" style="fill:#00CCDB;" width="5.491" height="0.763"/>
				<rect x="38.835" y="24.265" style="fill:#00CCDB;" width="3.634" height="0.763"/>
				<rect x="39.585" y="23.504" style="fill:#00CCDB;" width="3.624" height="0.763"/>
				<rect x="38.141" y="25.026" style="fill:#00CCDB;" width="3.634" height="0.763"/>
				<rect x="37.398" y="25.792" style="fill:#00CCDB;" width="3.634" height="0.763"/>
				<rect x="38.041" y="26.552" style="fill:#00CCDB;" width="2.239" height="0.763"/>
				<rect x="38.811" y="27.317" style="fill:#00CCDB;" width="0.763" height="0.763"/>
				<rect x="36.616" y="27.983" transform="matrix(-1.836970e-16 1 -1 -1.836970e-16 66.0354 -9.306)" style="fill:#00CCDB;" width="2.11" height="0.763"/>
			</g>
			<g>
				<rect x="161.488" y="34.124" transform="matrix(-1.836970e-16 1 -1 -1.836970e-16 199.6854 -126.1692)" style="fill:#E2336D;" width="2.879" height="5.268"/>
				<rect x="161.016" y="34.554" style="fill:#E2336D;" width="0.763" height="0.763"/>
				<g>
					<rect x="163.15" y="35.283" style="fill:#FFFFFF;" width="0.763" height="0.763"/>
					<rect x="163.911" y="36.048" style="fill:#FFFFFF;" width="0.763" height="1.473"/>
				</g>
				<rect x="161.538" y="34.554" style="fill:#E2336D;" width="3.859" height="0.763"/>
				<rect x="161.772" y="33.807" style="fill:#E2336D;" width="2.879" height="0.763"/>
				<rect x="164.345" y="36.376" transform="matrix(-1.836970e-16 1 -1 -1.836970e-16 202.543 -129.0269)" style="fill:#E2336D;" width="2.879" height="0.763"/>
				<rect x="158.913" y="38.901" style="fill:#E2336D;" width="5.756" height="0.763"/>
				<rect x="164.647" y="38.183" style="fill:#E2336D;" width="0.763" height="0.763"/>
				<rect x="159.58" y="38.183" style="fill:#E2336D;" width="5.491" height="0.763"/>
				<rect x="157.454" y="40.422" style="fill:#E2336D;" width="3.634" height="0.763"/>
				<rect x="158.204" y="39.661" style="fill:#E2336D;" width="3.624" height="0.763"/>
				<rect x="156.76" y="41.183" style="fill:#E2336D;" width="3.634" height="0.763"/>
				<rect x="156.017" y="41.949" style="fill:#E2336D;" width="3.634" height="0.763"/>
				<rect x="156.66" y="42.709" style="fill:#E2336D;" width="2.239" height="0.763"/>
				<rect x="157.43" y="43.474" style="fill:#E2336D;" width="0.763" height="0.763"/>
				<rect x="155.234" y="44.14" transform="matrix(-1.836970e-16 1 -1 -1.836970e-16 200.8114 -111.7677)" style="fill:#E2336D;" width="2.11" height="0.763"/>
			</g>
			<g>
				<rect x="153.036" y="32.407" style="fill:#E2336D;" width="1.268" height="1.268"/>
				<rect x="155.065" y="32.407" style="fill:#E2336D;" width="1.268" height="1.268"/>
				<rect x="154.629" y="31.427" transform="matrix(-1.836970e-16 1 -1 -1.836970e-16 187.7659 -124.1959)" style="fill:#E2336D;" width="2.704" height="0.717"/>
				<rect x="152.594" y="31.413" transform="matrix(-1.836970e-16 1 -1 -1.836970e-16 185.7164 -122.1743)" style="fill:#E2336D;" width="2.704" height="0.717"/>
				<rect x="153.636" y="30.433" style="fill:#E2336D;" width="2.704" height="0.717"/>
			</g>
			<g>
				<rect x="26.63" y="51.667" style="fill:#0009AA;" width="2.182" height="2.182"/>
				<rect x="30.123" y="51.667" style="fill:#0009AA;" width="2.182" height="2.182"/>
				<rect x="29.372" y="49.978" transform="matrix(-1.836970e-16 1 -1 -1.836970e-16 82.2947 18.8958)" style="fill:#0009AA;" width="4.654" height="1.234"/>
				<rect x="25.868" y="49.954" transform="matrix(-1.836970e-16 1 -1 -1.836970e-16 78.7665 22.376)" style="fill:#0009AA;" width="4.654" height="1.234"/>
				<rect x="27.662" y="48.268" style="fill:#0009AA;" width="4.654" height="1.234"/>
			</g>
			<g>
				<rect x="29.26" y="18.521" style="fill:#00CCDB;" width="1.268" height="1.268"/>
				<rect x="31.289" y="18.521" style="fill:#00CCDB;" width="1.268" height="1.268"/>
				<rect x="30.853" y="17.541" transform="matrix(-1.836970e-16 1 -1 -1.836970e-16 50.1042 -14.306)" style="fill:#00CCDB;" width="2.704" height="0.717"/>
				<rect x="28.818" y="17.527" transform="matrix(-1.836970e-16 1 -1 -1.836970e-16 48.0547 -12.2844)" style="fill:#00CCDB;" width="2.704" height="0.717"/>
				<rect x="29.86" y="16.547" style="fill:#00CCDB;" width="2.704" height="0.717"/>
			</g>
			<g>
				<rect x="12.414" y="7.148" style="fill:#E2336D;" width="1.383" height="1.383"/>
				<rect x="14.627" y="7.148" style="fill:#E2336D;" width="1.383" height="1.383"/>
				<rect x="14.151" y="6.078" transform="matrix(-1.836970e-16 1 -1 -1.836970e-16 22.095 -9.157)" style="fill:#E2336D;" width="2.949" height="0.782"/>
				<rect x="11.931" y="6.063" transform="matrix(-1.836970e-16 1 -1 -1.836970e-16 19.8595 -6.9519)" style="fill:#E2336D;" width="2.949" height="0.782"/>
				<rect x="13.068" y="4.995" style="fill:#E2336D;" width="2.949" height="0.782"/>
			</g>
			<path style="fill:#FCCC12;" d="M82.962,22.532l-5.267,9.8l-0.6,9.667l2.4,10.667l9.267,11.4l10.6,0.067l11.467-2.533l9.533-6.8
			c0,0,2.733-11.933,2.733-13c0-1.067-0.267-11.133-0.267-11.133l-7.2-7.733l-15.267-5.267L82.962,22.532z"/>
			<g>
				<g>
					<rect x="81.858" y="36.048" style="fill:#FFE499;" width="2.073" height="1.936"/>
					<g>
						<path style="fill:#FCCC12;" d="M124.239,30.242v-1.935v-1.936v-1.935h-2.072v-1.936h-2.073v-1.935h-2.073v-1.935h-2.072v-1.936
						h-2.072V14.76h-2.073h-2.073v-1.936h-2.072h-2.073h-2.073h-2.072h-5.072h-2.074h-2.072h-2.073v1.936h-2.073h-2.072v1.935
						h-2.072v1.936h-2.073v1.935h-2.073v1.935h-2.072v1.936v1.935H75.64v1.936v1.935h-2.073v1.935v1.936v1.935v1.936v1.935v1.935
						v1.936v1.935v1.936v1.935h2.073v1.935v1.936h2.073v1.935v1.936h2.072v1.935h2.073v1.935h2.073v1.936h2.072v1.935h2.072h2.073
						v1.935h2.073h2.072h2.074h5.072h2.072h2.073h2.073h2.072v-1.935h2.073h2.073v-1.935h2.072v-1.936h2.072v-1.935h2.073v-1.935
						h2.073v-1.936h2.072v-1.935V51.53h2.074v-1.935V47.66v-1.936v-1.935v-1.936v-1.935v-1.935v-1.936v-1.935v-1.936v-1.935H124.239
						z M81.858,32.177v-1.935v-1.935h2.073v-1.936h2.072v-1.935h2.072v-1.936h2.073v-1.935h2.073h2.072h2.074h5.072h2.072h2.073
						h2.073h2.072v1.935h2.073v1.936h2.073v1.935h2.072v1.936h2.072v1.935v1.935h2.073v1.936v1.935v1.936v1.935v1.935v1.936v1.935
						v1.936h-2.073v1.935v1.935h-2.072v1.936h-2.072v1.935h-2.073v1.936h-2.073v1.935h-2.072h-2.073h-2.073h-2.072h-5.072h-2.074
						h-2.072h-2.073v-1.935h-2.073v-1.936h-2.072v-1.935h-2.072V51.53h-2.073v-1.935V47.66h-2.073v-1.936v-1.935v-1.936v-1.935
						v-1.935v-1.936v-1.935v-1.936H81.858z"/>
						<polygon style="fill:#FCCC12;" points="86.003,30.242 83.931,30.242 83.931,32.177 83.931,34.113 83.931,36.048 83.931,37.984 
						83.931,39.919 83.931,41.853 83.931,43.789 83.931,45.724 86.003,45.724 86.003,47.66 86.003,49.595 88.075,49.595 
						88.075,51.53 90.148,51.53 90.148,53.466 92.222,53.466 94.294,53.466 94.294,55.401 96.368,55.401 101.44,55.401 
						103.512,55.401 105.585,55.401 107.658,55.401 107.658,53.466 109.731,53.466 111.804,53.466 111.804,51.53 113.877,51.53 
						113.877,49.595 115.949,49.595 115.949,47.66 115.949,45.724 118.021,45.724 118.021,43.789 118.021,41.853 118.021,39.919 
						118.021,37.984 118.021,36.048 118.021,34.113 115.949,34.113 115.949,32.177 115.949,30.242 115.949,28.307 113.877,28.307 
						113.877,26.371 111.804,26.371 111.804,24.436 109.731,24.436 107.658,24.436 107.658,22.501 105.585,22.501 103.512,22.501 
						101.44,22.501 96.368,22.501 94.294,22.501 92.222,22.501 92.222,24.436 90.148,24.436 88.075,24.436 88.075,26.371 
						86.003,26.371 86.003,28.307 					"/>
					</g>
					<g>
						<polygon style="fill:#E59200;" points="109.731,65.077 109.731,67.012 107.658,67.012 105.586,67.012 103.512,67.012 
						101.44,67.012 96.368,67.012 94.294,67.012 92.222,67.012 90.148,67.012 90.148,68.948 92.222,68.948 94.294,68.948 
						96.368,68.948 101.44,68.948 103.512,68.948 105.586,68.948 107.658,68.948 109.731,68.948 109.731,67.013 111.804,67.013 
						113.877,67.013 113.877,65.077 111.804,65.077 					"/>
						<rect x="113.877" y="63.142" style="fill:#E59200;" width="2.072" height="1.935"/>
						<polygon style="fill:#E59200;" points="118.021,61.206 115.949,61.206 115.949,63.142 118.021,63.142 120.094,63.142 
						120.094,61.206 120.094,59.271 118.021,59.271 					"/>
						<rect x="120.094" y="57.336" style="fill:#E59200;" width="2.073" height="1.935"/>
						<rect x="122.167" y="55.401" style="fill:#E59200;" width="2.072" height="1.936"/>
						<polygon style="fill:#E59200;" points="124.239,53.466 124.239,55.401 126.313,55.401 126.313,53.466 126.313,51.53 
						124.239,51.53 					"/>
						<polygon style="fill:#E59200;" points="126.313,30.185 126.313,32.32 126.313,34.454 126.313,36.589 126.313,38.723 
						126.313,40.858 126.313,42.992 126.313,45.127 126.313,47.262 126.313,49.396 126.313,51.53 128.386,51.53 128.386,49.396 
						128.386,47.262 128.386,45.127 128.386,42.992 128.386,40.858 128.386,38.723 128.386,36.589 128.386,34.454 128.386,32.32 
						128.386,30.185 					"/>
						<polygon style="fill:#E59200;" points="124.239,28.307 124.239,30.242 126.313,30.242 126.313,28.307 126.313,26.371 
						124.239,26.371 					"/>
						<rect x="122.167" y="22.501" style="fill:#E59200;" width="2.072" height="3.885"/>
						<rect x="111.804" y="53.466" style="fill:#E59200;" width="2.073" height="1.935"/>
						<polygon style="fill:#E59200;" points="115.949,32.177 115.949,34.113 118.021,34.113 118.021,34.113 118.021,36.048 
						118.021,37.984 118.021,39.919 118.021,41.853 118.021,43.789 118.021,45.724 118.021,45.724 115.949,45.724 115.949,47.659 
						115.949,49.595 113.877,49.595 113.877,51.53 113.877,53.466 115.949,53.466 115.949,51.53 118.021,51.53 118.021,49.595 
						118.021,47.66 120.094,47.66 120.094,45.724 120.094,43.789 120.094,41.853 120.094,39.919 120.094,37.984 120.094,36.048 
						120.094,34.113 120.094,32.177 118.021,32.177 118.021,32.177 118.021,30.242 118.021,28.307 115.949,28.307 115.949,30.242 
											"/>
						<rect x="113.877" y="26.371" style="fill:#E59200;" width="2.072" height="1.936"/>
						<rect x="111.804" y="24.436" style="fill:#E59200;" width="2.073" height="1.935"/>
						<rect x="120.094" y="20.566" style="fill:#E59200;" width="2.073" height="1.935"/>
						<rect x="118.021" y="18.631" style="fill:#E59200;" width="2.073" height="1.935"/>
						<rect x="115.949" y="16.695" style="fill:#E59200;" width="2.072" height="1.936"/>
						<rect x="113.877" y="14.76" style="fill:#E59200;" width="2.072" height="1.935"/>
						<polygon style="fill:#E59200;" points="109.731,14.76 111.804,14.76 113.877,14.76 113.877,12.824 111.804,12.824 
						109.731,12.824 					"/>
						<polygon style="fill:#E59200;" points="88.075,65.077 86.003,65.077 86.003,67.012 88.075,67.012 90.148,67.012 90.148,65.077 
											"/>
						<rect x="83.931" y="63.142" style="fill:#E59200;" width="2.072" height="1.935"/>
						<polygon style="fill:#E59200;" points="81.858,61.206 81.858,59.271 79.785,59.271 79.785,61.206 79.785,63.142 81.858,63.142 
						83.931,63.142 83.931,61.206 					"/>
						<rect x="77.713" y="57.336" style="fill:#E59200;" width="2.072" height="1.936"/>
						<polygon style="fill:#E59200;" points="92.222,59.271 94.294,59.271 96.368,59.271 101.44,59.271 103.512,59.271 
						105.586,59.271 107.658,59.271 109.731,59.271 109.731,57.336 111.804,57.336 111.804,55.401 109.731,55.401 107.658,55.401 
						107.658,57.336 105.586,57.336 103.512,57.336 101.44,57.336 96.368,57.336 94.294,57.336 92.222,57.336 92.222,55.401 
						90.148,55.401 88.075,55.401 88.075,57.336 90.148,57.336 90.148,59.271 					"/>
						<rect x="86.003" y="53.466" style="fill:#E59200;" width="2.072" height="1.935"/>
						<polygon style="fill:#E59200;" points="77.713,53.466 75.64,53.466 75.64,55.401 75.64,57.336 77.713,57.336 77.713,55.401 
											"/>
						<polygon style="fill:#E59200;" points="75.64,49.595 73.567,49.595 73.567,51.53 73.567,53.466 75.64,53.466 75.64,51.53 					
						"/>
						<polygon style="fill:#E59200;" points="73.567,47.094 73.567,44.669 73.567,42.244 73.567,39.819 73.567,37.394 73.567,34.969 
						73.567,32.544 73.567,30.119 71.494,30.119 71.494,32.544 71.494,34.969 71.494,37.394 71.494,39.819 71.494,42.244 
						71.494,44.669 71.494,47.094 71.494,49.519 73.567,49.519 					"/>
						<polygon style="fill:#E59200;" points="86.003,49.595 83.931,49.595 83.931,47.659 83.931,45.724 81.858,45.724 81.858,43.789 
						81.858,41.853 81.858,39.919 81.858,37.984 81.858,36.048 81.858,34.113 83.931,34.113 83.931,32.177 83.931,30.242 
						86.003,30.242 86.003,28.307 86.003,26.371 83.931,26.371 83.931,28.307 81.858,28.307 81.858,30.242 81.858,32.177 
						79.785,32.177 79.785,34.113 79.785,36.048 79.785,37.984 79.785,39.919 79.785,41.853 79.785,43.789 79.785,45.724 
						79.785,47.659 81.858,47.659 81.858,49.595 81.858,51.53 83.931,51.53 83.931,53.466 86.003,53.466 86.003,51.53 					"/>
						<polygon style="fill:#E59200;" points="75.64,28.307 75.64,26.371 73.567,26.371 73.567,28.307 73.567,30.242 75.64,30.242 
											"/>
						<rect x="86.003" y="24.436" style="fill:#E59200;" width="2.072" height="1.935"/>
						<polygon style="fill:#E59200;" points="77.713,24.436 77.713,22.501 75.64,22.501 75.64,24.436 75.64,26.371 77.713,26.371 
											"/>
						<polygon style="fill:#E59200;" points="92.222,24.436 92.222,22.501 94.294,22.501 96.368,22.501 101.44,22.501 
						103.512,22.501 105.586,22.501 107.658,22.501 107.658,24.436 109.731,24.436 111.804,24.436 111.804,22.501 109.731,22.501 
						109.731,20.566 107.658,20.566 105.586,20.566 103.512,20.566 101.44,20.566 96.368,20.566 94.294,20.566 92.222,20.566 
						90.148,20.566 90.148,22.501 88.075,22.501 88.075,24.436 90.148,24.436 					"/>
						<rect x="77.713" y="20.566" style="fill:#E59200;" width="2.072" height="1.935"/>
						<rect x="79.785" y="18.631" style="fill:#E59200;" width="2.073" height="1.935"/>
						<rect x="81.858" y="16.695" style="fill:#E59200;" width="2.073" height="1.936"/>
						<rect x="83.931" y="14.76" style="fill:#E59200;" width="2.072" height="1.935"/>
						<polygon style="fill:#E59200;" points="90.148,14.76 90.148,12.824 88.075,12.824 86.003,12.824 86.003,14.76 88.075,14.76 
											"/>
						<polygon style="fill:#E59200;" points="94.294,12.824 96.368,12.824 101.44,12.824 103.512,12.824 105.586,12.824 
						107.658,12.824 109.731,12.824 109.731,10.889 107.658,10.889 105.586,10.889 103.512,10.889 101.44,10.889 96.368,10.889 
						94.294,10.889 92.222,10.889 90.148,10.889 90.148,12.824 92.222,12.824 					"/>
					</g>
					<g>
						<polygon style="fill:#FFE499;" points="103.512,55.401 101.44,55.401 96.368,55.401 94.294,55.401 94.294,53.466 
						92.222,53.466 90.148,53.466 90.148,51.53 88.075,51.53 88.075,49.595 86.003,49.595 86.003,51.53 86.003,53.466 
						88.075,53.466 88.075,55.401 90.148,55.401 92.222,55.401 92.222,57.336 94.294,57.336 96.368,57.336 101.44,57.336 
						103.512,57.336 105.585,57.336 107.658,57.336 107.658,55.401 105.585,55.401 					"/>
						<polygon style="fill:#FFE499;" points="107.658,53.466 107.658,55.401 109.731,55.401 111.804,55.401 111.804,53.466 
						109.731,53.466 					"/>
						<rect x="111.804" y="51.53" style="fill:#FFE499;" width="2.073" height="1.936"/>
						<polygon style="fill:#FFE499;" points="86.003,45.724 83.931,45.724 83.931,47.66 83.931,49.595 86.003,49.595 86.003,47.66 
											"/>
						<polygon style="fill:#FFE499;" points="83.931,41.853 83.931,39.919 83.931,37.984 81.858,37.984 81.858,39.919 81.858,41.853 
						81.858,43.789 81.858,45.724 83.931,45.724 83.931,43.789 					"/>
						<rect x="81.858" y="34.113" style="fill:#FFE499;" width="2.073" height="1.935"/>
					</g>
				</g>
				<g>
					<polygon style="fill:#E59200;" points="98.727,32.703 100.801,32.703 105.873,32.703 107.946,32.703 107.946,30.768 
					105.873,30.768 100.801,30.768 98.727,30.768 96.655,30.768 94.582,30.768 94.582,32.703 96.655,32.703 				"/>
					<polygon style="fill:#E59200;" points="94.581,34.797 94.581,32.723 92.646,32.723 92.646,34.797 92.646,36.869 92.646,38.942 
					94.581,38.942 94.581,36.869 				"/>
					<polygon style="fill:#E59200;" points="98.804,40.878 100.903,40.878 106.038,40.878 106.038,38.943 100.903,38.943 
					98.804,38.943 96.706,38.943 94.607,38.943 94.607,40.878 96.706,40.878 				"/>
					<polygon style="fill:#E59200;" points="107.971,42.972 107.971,40.898 106.036,40.898 106.036,42.972 106.036,45.044 
					106.036,47.117 107.971,47.117 107.971,45.044 				"/>
					<polygon style="fill:#E59200;" points="96.861,49.069 98.935,49.069 104.007,49.069 106.079,49.069 106.079,47.134 
					104.007,47.134 98.935,47.134 96.861,47.134 94.788,47.134 92.715,47.134 92.715,49.069 94.788,49.069 				"/>
				</g>
			</g>
		</g>
	</g>
	<g id="&#x56FE;&#x5C42;_4_x5F_&#x590D;&#x5236;_2">
		<g>
			<g>
				<path style="fill:#1BC4E3;" d="M186.162,77.839h0.551v0.072h-0.551V77.839z M186.399,77.87h0.077v0.75h-0.077V77.87z"/>
				<path style="fill:#1BC4E3;" d="M186.788,77.839h0.077v0.781h-0.077V77.839z M187.159,78.282c0-0.049-0.013-0.088-0.039-0.115
				c-0.026-0.027-0.063-0.041-0.11-0.041c-0.046,0-0.081,0.012-0.107,0.036c-0.025,0.024-0.038,0.058-0.038,0.103l-0.011-0.108
				c0.02-0.037,0.046-0.063,0.078-0.079s0.07-0.024,0.113-0.024c0.061,0,0.107,0.02,0.14,0.059c0.033,0.04,0.05,0.096,0.05,0.168
				v0.339h-0.077V78.282z"/>
				<path style="fill:#1BC4E3;" d="M187.554,78.628c0,0-0.018-0.01-0.055-0.029c-0.036-0.02-0.064-0.048-0.084-0.085
				c-0.019-0.037-0.029-0.082-0.029-0.135v-0.063c0-0.055,0.009-0.102,0.028-0.141c0.018-0.039,0.045-0.069,0.08-0.089
				c0.035-0.02,0.077-0.031,0.127-0.031c0.047,0,0.086,0.01,0.119,0.03c0.033,0.02,0.058,0.049,0.076,0.088
				c0.017,0.039,0.026,0.085,0.026,0.139v0.064h-0.403v-0.07h0.331V78.3c0-0.055-0.013-0.098-0.039-0.128
				c-0.026-0.03-0.063-0.045-0.11-0.045c-0.052,0-0.092,0.016-0.12,0.048c-0.028,0.032-0.042,0.077-0.042,0.135v0.071
				c0,0.056,0.015,0.099,0.045,0.13c0.03,0.031,0.073,0.046,0.127,0.046c0.026,0,0.051-0.005,0.077-0.016
				c0.025-0.011,0.048-0.026,0.067-0.046l0.053,0.051c-0.027,0.027-0.058,0.047-0.092,0.062c-0.034,0.015-0.069,0.022-0.104,0.022
				C187.58,78.628,187.554,78.628,187.554,78.628z"/>
				<path style="fill:#1BC4E3;" d="M188.192,77.839h0.077v0.781h-0.077V77.839z M188.256,78.548h0.214
				c0.066,0,0.115-0.012,0.145-0.037s0.045-0.06,0.045-0.105v-0.002c0-0.031-0.006-0.057-0.017-0.08
				c-0.011-0.022-0.029-0.039-0.053-0.051c-0.024-0.012-0.055-0.018-0.093-0.018h-0.241v-0.072h0.241
				c0.051,0,0.089-0.011,0.115-0.034c0.026-0.023,0.038-0.056,0.038-0.1c0-0.046-0.014-0.081-0.042-0.104
				c-0.028-0.023-0.07-0.034-0.126-0.034h-0.226v-0.072h0.243c0.05,0,0.093,0.009,0.127,0.026c0.034,0.017,0.059,0.042,0.076,0.073
				c0.017,0.031,0.025,0.069,0.025,0.113c0,0.027-0.005,0.051-0.016,0.075c-0.01,0.023-0.026,0.044-0.048,0.06
				c-0.021,0.017-0.048,0.028-0.079,0.034c0.031,0.005,0.059,0.016,0.082,0.034c0.023,0.018,0.04,0.04,0.053,0.066
				c0.012,0.027,0.018,0.055,0.018,0.086v0.002c0,0.042-0.009,0.08-0.028,0.112c-0.019,0.032-0.045,0.057-0.08,0.075
				c-0.035,0.018-0.075,0.026-0.121,0.026h-0.253V78.548z"/>
				<path style="fill:#1BC4E3;" d="M189.042,78.628c0,0-0.018-0.01-0.055-0.029c-0.037-0.02-0.064-0.048-0.084-0.085
				c-0.019-0.037-0.029-0.082-0.029-0.135v-0.063c0-0.055,0.009-0.102,0.028-0.141c0.018-0.039,0.045-0.069,0.08-0.089
				c0.035-0.02,0.077-0.031,0.127-0.031c0.047,0,0.086,0.01,0.119,0.03c0.033,0.02,0.058,0.049,0.076,0.088
				c0.017,0.039,0.026,0.085,0.026,0.139v0.064h-0.403v-0.07h0.331V78.3c0-0.055-0.013-0.098-0.039-0.128
				c-0.026-0.03-0.063-0.045-0.11-0.045c-0.052,0-0.092,0.016-0.12,0.048c-0.028,0.032-0.042,0.077-0.042,0.135v0.071
				c0,0.056,0.015,0.099,0.045,0.13c0.03,0.031,0.073,0.046,0.127,0.046c0.026,0,0.051-0.005,0.077-0.016
				c0.025-0.011,0.048-0.026,0.067-0.046l0.053,0.051c-0.027,0.027-0.058,0.047-0.092,0.062c-0.034,0.015-0.069,0.022-0.104,0.022
				C189.068,78.628,189.042,78.628,189.042,78.628z"/>
				<path style="fill:#1BC4E3;" d="M189.628,78.628c0,0-0.014-0.003-0.042-0.009c-0.028-0.006-0.055-0.015-0.079-0.026
				c-0.024-0.011-0.046-0.025-0.065-0.041l0.045-0.054c0.03,0.02,0.062,0.036,0.095,0.048c0.033,0.011,0.064,0.017,0.093,0.017
				c0.053,0,0.095-0.009,0.124-0.027c0.029-0.018,0.044-0.044,0.044-0.077c0-0.024-0.007-0.043-0.021-0.055
				c-0.014-0.012-0.032-0.02-0.053-0.025c-0.022-0.004-0.051-0.008-0.09-0.011c-0.004,0-0.007-0.001-0.011-0.001
				c-0.004,0-0.007,0-0.011-0.001c-0.001,0-0.003,0-0.004,0c-0.001,0-0.003,0-0.004,0c-0.037-0.004-0.068-0.009-0.092-0.016
				c-0.025-0.007-0.045-0.021-0.062-0.04c-0.017-0.02-0.025-0.048-0.025-0.085c0-0.036,0.009-0.066,0.026-0.091
				c0.017-0.025,0.043-0.044,0.076-0.057c0.033-0.013,0.074-0.02,0.121-0.02c0.024,0,0.049,0.002,0.073,0.007
				c0.024,0.005,0.048,0.012,0.07,0.021s0.043,0.02,0.062,0.033l-0.045,0.053c-0.027-0.015-0.054-0.027-0.083-0.036
				c-0.029-0.008-0.056-0.013-0.081-0.013c-0.047,0-0.083,0.009-0.109,0.026c-0.026,0.018-0.039,0.042-0.039,0.074
				c0,0.022,0.007,0.039,0.021,0.05s0.032,0.018,0.053,0.022c0.021,0.004,0.051,0.006,0.088,0.009c0.001,0,0.003,0,0.005,0
				c0.002,0,0.003,0,0.005,0c0.001,0,0.002,0,0.003,0c0.001,0,0.002,0,0.003,0.001c0.039,0.002,0.072,0.007,0.1,0.015
				c0.027,0.007,0.05,0.022,0.069,0.045c0.019,0.022,0.028,0.054,0.028,0.096c0,0.036-0.009,0.067-0.028,0.092
				c-0.019,0.025-0.046,0.045-0.082,0.058c-0.036,0.013-0.079,0.02-0.129,0.02C189.643,78.628,189.628,78.628,189.628,78.628z"/>
				<path style="fill:#1BC4E3;" d="M190.009,78.062h0.251v0.067h-0.251V78.062z M190.098,78.585c-0.021-0.025-0.031-0.062-0.031-0.11
				V77.9h0.077v0.576c0,0.024,0.005,0.042,0.016,0.055c0.011,0.013,0.027,0.019,0.048,0.019h0.053v0.072h-0.063
				C190.152,78.623,190.119,78.61,190.098,78.585z"/>
				<path style="fill:#1BC4E3;" d="M190.61,77.839h0.077v0.781h-0.077V77.839z M190.662,78.197h0.466v0.075h-0.466V78.197z
				 M191.086,77.839h0.077v0.781h-0.077V77.839z"/>
				<path style="fill:#1BC4E3;" d="M191.706,78.062h0.082l-0.22,0.558h-0.061l-0.22-0.558h0.082l0.169,0.457L191.706,78.062z"/>
				<path style="fill:#1BC4E3;" d="M191.907,77.839h0.077v0.781h-0.077V77.839z M191.959,78.197h0.466v0.075h-0.466V78.197z
				 M192.383,77.839h0.077v0.781h-0.077V77.839z"/>
				<path style="fill:#1BC4E3;" d="M192.976,78.628c0,0-0.018-0.009-0.054-0.027c-0.036-0.018-0.063-0.045-0.08-0.081
				c-0.018-0.036-0.027-0.081-0.027-0.135v-0.092c0-0.053,0.009-0.098,0.027-0.133c0.018-0.035,0.045-0.062,0.08-0.08
				c0.036-0.018,0.08-0.027,0.134-0.027c0.03,0,0.058,0.003,0.083,0.01c0.025,0.007,0.047,0.016,0.067,0.03
				c0.02,0.013,0.037,0.03,0.052,0.05l-0.057,0.051c-0.019-0.023-0.04-0.04-0.064-0.051c-0.024-0.011-0.05-0.017-0.079-0.017
				c-0.056,0-0.097,0.014-0.124,0.042c-0.027,0.028-0.041,0.07-0.041,0.126v0.092c0,0.057,0.014,0.1,0.041,0.128
				c0.028,0.028,0.069,0.042,0.124,0.042c0.03,0,0.058-0.005,0.083-0.016c0.025-0.011,0.047-0.027,0.067-0.049l0.05,0.049
				c-0.015,0.02-0.032,0.036-0.052,0.049c-0.02,0.013-0.042,0.023-0.067,0.029c-0.025,0.006-0.053,0.01-0.083,0.01
				C193.002,78.628,192.976,78.628,192.976,78.628z"/>
				<path style="fill:#1BC4E3;" d="M193.469,78.6c-0.034-0.019-0.061-0.047-0.079-0.083c-0.018-0.036-0.027-0.08-0.027-0.131v-0.091
				c0-0.051,0.009-0.094,0.027-0.13c0.018-0.036,0.044-0.063,0.079-0.082s0.076-0.028,0.124-0.028c0.048,0,0.09,0.009,0.124,0.028
				c0.034,0.019,0.061,0.046,0.079,0.082c0.018,0.036,0.027,0.079,0.027,0.13v0.092c0,0.051-0.009,0.094-0.027,0.13
				c-0.018,0.036-0.044,0.064-0.079,0.082c-0.034,0.019-0.076,0.028-0.124,0.028C193.545,78.628,193.503,78.619,193.469,78.6z
				 M193.705,78.512c0.027-0.03,0.04-0.071,0.04-0.125v-0.092c0-0.053-0.013-0.095-0.04-0.124c-0.027-0.029-0.064-0.044-0.113-0.044
				c-0.048,0-0.086,0.015-0.112,0.044c-0.027,0.029-0.04,0.071-0.04,0.124v0.092c0,0.054,0.013,0.095,0.04,0.125
				c0.027,0.03,0.064,0.044,0.112,0.044C193.641,78.556,193.679,78.541,193.705,78.512z"/>
				<path style="fill:#1BC4E3;" d="M193.979,78.062h0.077v0.558h-0.077V78.062z M194.328,78.282c0-0.049-0.012-0.088-0.035-0.115
				c-0.023-0.027-0.057-0.041-0.1-0.041c-0.043,0-0.077,0.012-0.101,0.037c-0.024,0.025-0.036,0.059-0.036,0.104l-0.011-0.107
				c0.019-0.037,0.043-0.064,0.073-0.081c0.03-0.016,0.065-0.025,0.105-0.025c0.038,0,0.071,0.009,0.099,0.027
				c0.027,0.018,0.048,0.044,0.062,0.078c0.014,0.034,0.021,0.075,0.021,0.123v0.339h-0.077V78.282z M194.677,78.282
				c0-0.049-0.012-0.088-0.035-0.115s-0.057-0.041-0.1-0.041c-0.043,0-0.077,0.013-0.101,0.04c-0.024,0.027-0.036,0.064-0.036,0.112
				l-0.033-0.081c0.018-0.046,0.043-0.082,0.075-0.106c0.032-0.025,0.07-0.037,0.115-0.037c0.04,0,0.075,0.009,0.104,0.027
				c0.029,0.018,0.051,0.044,0.066,0.078c0.015,0.034,0.023,0.075,0.023,0.123v0.339h-0.077V78.282z"/>
				<path style="fill:#1BC4E3;" d="M194.921,78.062h0.077v0.558h-0.077V78.062z M195.27,78.282c0-0.049-0.012-0.088-0.035-0.115
				c-0.023-0.027-0.057-0.041-0.1-0.041c-0.043,0-0.077,0.012-0.101,0.037c-0.024,0.025-0.036,0.059-0.036,0.104l-0.011-0.107
				c0.019-0.037,0.043-0.064,0.073-0.081c0.03-0.016,0.065-0.025,0.105-0.025c0.038,0,0.071,0.009,0.099,0.027
				c0.027,0.018,0.048,0.044,0.062,0.078c0.014,0.034,0.021,0.075,0.021,0.123v0.339h-0.077V78.282z M195.62,78.282
				c0-0.049-0.012-0.088-0.035-0.115c-0.024-0.027-0.057-0.041-0.1-0.041c-0.043,0-0.077,0.013-0.101,0.04
				c-0.024,0.027-0.036,0.064-0.036,0.112l-0.033-0.081c0.018-0.046,0.043-0.082,0.075-0.106c0.032-0.025,0.07-0.037,0.115-0.037
				c0.04,0,0.075,0.009,0.104,0.027c0.029,0.018,0.051,0.044,0.066,0.078c0.015,0.034,0.023,0.075,0.023,0.123v0.339h-0.077V78.282z
				"/>
				<path style="fill:#1BC4E3;" d="M195.941,78.401c0,0.049,0.013,0.087,0.038,0.114c0.025,0.027,0.061,0.041,0.108,0.041
				c0.046,0,0.082-0.012,0.107-0.037c0.025-0.025,0.038-0.06,0.038-0.105l0.008,0.117c-0.014,0.028-0.036,0.051-0.067,0.069
				c-0.031,0.019-0.07,0.028-0.116,0.028c-0.062,0-0.109-0.02-0.143-0.059c-0.034-0.04-0.05-0.095-0.05-0.167v-0.339h0.077V78.401z
				 M196.232,78.062h0.077v0.558h-0.077V78.062z"/>
				<path style="fill:#1BC4E3;" d="M196.476,78.062h0.077v0.558h-0.077V78.062z M196.846,78.282c0-0.049-0.013-0.088-0.039-0.115
				c-0.026-0.027-0.063-0.041-0.11-0.041c-0.046,0-0.081,0.012-0.107,0.036c-0.025,0.024-0.038,0.058-0.038,0.103l-0.011-0.108
				c0.02-0.037,0.046-0.063,0.078-0.079c0.033-0.016,0.07-0.024,0.113-0.024c0.061,0,0.107,0.02,0.14,0.059
				c0.033,0.04,0.05,0.096,0.05,0.168v0.339h-0.077V78.282z"/>
				<path style="fill:#1BC4E3;" d="M197.107,77.839h0.077v0.077h-0.077V77.839z M197.107,78.062h0.077v0.558h-0.077V78.062z"/>
				<path style="fill:#1BC4E3;" d="M197.324,78.062h0.251v0.067h-0.251V78.062z M197.412,78.585c-0.021-0.025-0.031-0.062-0.031-0.11
				V77.9h0.077v0.576c0,0.024,0.005,0.042,0.016,0.055c0.011,0.013,0.027,0.019,0.048,0.019h0.053v0.072h-0.063
				C197.466,78.623,197.433,78.61,197.412,78.585z"/>
				<path style="fill:#1BC4E3;" d="M197.666,78.062h0.08l0.183,0.517l-0.04,0.086L197.666,78.062z M198.16,78.062l-0.237,0.688
				c-0.009,0.025-0.02,0.046-0.034,0.06c-0.014,0.015-0.031,0.026-0.052,0.032c-0.02,0.006-0.045,0.01-0.075,0.01h-0.022V78.78
				h0.022c0.029,0,0.051-0.007,0.068-0.02c0.017-0.013,0.032-0.036,0.044-0.067l0.206-0.63H198.16z"/>
			</g>
			<g>
				<g>
					<polygon style="fill:#003149;" points="187.375,76.736 187.375,73.819 187.375,73.751 187.308,73.751 186.23,73.751 
					186.162,73.751 186.162,73.819 186.162,77.39 186.162,77.458 186.23,77.458 188.8,77.458 188.868,77.458 188.868,77.39 
					188.868,76.804 188.868,76.736 188.8,76.736 				"/>
					<polygon style="fill:#003149;" points="193.576,73.751 193.508,73.751 193.508,73.819 193.508,75.248 193.226,75.248 
					193.226,74.815 193.226,74.748 193.158,74.748 192.729,74.748 192.729,73.819 192.729,73.751 192.661,73.751 191.584,73.751 
					191.516,73.751 191.516,73.819 191.516,77.39 191.516,77.458 191.584,77.458 192.661,77.458 192.729,77.458 192.729,77.39 
					192.729,75.961 193.012,75.961 193.012,76.394 193.012,76.461 193.08,76.461 193.508,76.461 193.508,77.39 193.508,77.458 
					193.576,77.458 194.654,77.458 194.722,77.458 194.722,77.39 194.722,73.819 194.722,73.751 194.654,73.751 				"/>
					<polygon style="fill:#003149;" points="198.092,73.751 197.014,73.751 196.946,73.751 196.946,73.819 196.946,74.251 
					196.514,74.251 196.446,74.251 196.446,74.319 196.446,74.748 196.168,74.748 196.168,73.819 196.168,73.751 196.1,73.751 
					195.022,73.751 194.954,73.751 194.954,73.819 194.954,77.39 194.954,77.458 195.022,77.458 196.1,77.458 196.168,77.458 
					196.168,77.39 196.168,76.461 196.446,76.461 196.446,76.89 196.446,76.958 196.514,76.958 196.946,76.958 196.946,77.39 
					196.946,77.458 197.014,77.458 198.092,77.458 198.16,77.458 198.16,77.39 198.16,76.804 198.16,76.736 198.092,76.736 
					197.66,76.736 197.66,76.312 197.66,76.244 197.592,76.244 197.164,76.244 197.164,75.812 197.164,75.744 197.096,75.744 
					196.652,75.744 196.652,75.465 197.096,75.465 197.164,75.465 197.164,75.397 197.164,74.965 197.592,74.965 197.66,74.965 
					197.66,74.897 197.66,74.473 198.092,74.473 198.16,74.473 198.16,74.405 198.16,73.819 198.16,73.751 				"/>
					<polygon style="fill:#003149;" points="190.753,73.751 189.683,73.751 189.285,73.751 189.217,73.751 189.217,73.819 
					189.217,74.383 189.217,74.451 189.285,74.451 189.615,74.451 189.615,76.758 189.285,76.758 189.217,76.758 189.217,76.826 
					189.217,77.39 189.217,77.458 189.285,77.458 189.683,77.458 190.753,77.458 191.15,77.458 191.218,77.458 191.218,77.39 
					191.218,76.826 191.218,76.758 191.15,76.758 190.821,76.758 190.821,74.451 191.15,74.451 191.218,74.451 191.218,74.383 
					191.218,73.819 191.218,73.751 191.15,73.751 				"/>
				</g>
				<polygon style="fill:#1BC4E3;" points="186.196,77.308 186.196,73.67 187.341,73.67 187.341,76.655 188.834,76.655 
				188.834,77.308 			"/>
				<path style="fill:#003149;" d="M187.308,73.704v2.985h1.492v0.586h-2.57v-3.571H187.308 M187.375,73.636h-0.068h-1.078h-0.068
				v0.068v3.571v0.068h0.068h2.57h0.068v-0.068v-0.586v-0.068H188.8h-1.425v-2.917V73.636L187.375,73.636z"/>
				<g>
					<polygon style="fill:#1BC4E3;" points="193.542,77.308 193.542,76.312 193.046,76.312 193.046,75.812 192.695,75.812 
					192.695,77.308 191.55,77.308 191.55,73.67 192.695,73.67 192.695,74.666 193.192,74.666 193.192,75.166 193.542,75.166 
					193.542,73.67 194.688,73.67 194.688,77.308 				"/>
					<path style="fill:#003149;" d="M194.654,73.704v3.571h-1.078v-0.996h-0.496v-0.5h-0.418v1.496h-1.078v-3.571h1.078V74.7h0.496
					v0.5h0.418v-1.496H194.654 M194.722,73.636h-0.068h-1.078h-0.068v0.068v1.429h-0.283V74.7v-0.068h-0.068h-0.428v-0.928v-0.068
					h-0.068h-1.078h-0.068v0.068v3.571v0.068h0.068h1.078h0.068v-0.068v-1.429h0.283v0.432v0.068h0.068h0.428v0.928v0.068h0.068
					h1.078h0.068v-0.068v-3.571V73.636L194.722,73.636z"/>
				</g>
				<g>
					<polygon style="fill:#1BC4E3;" points="196.98,77.308 196.98,76.808 196.48,76.808 196.48,76.312 196.134,76.312 
					196.134,77.308 194.988,77.308 194.988,73.67 196.134,73.67 196.134,74.666 196.48,74.666 196.48,74.17 196.98,74.17 
					196.98,73.67 198.126,73.67 198.126,74.323 197.626,74.323 197.626,74.816 197.13,74.816 197.13,75.316 196.618,75.316 
					196.618,75.662 197.13,75.662 197.13,76.162 197.626,76.162 197.626,76.655 198.126,76.655 198.126,77.308 				"/>
					<path style="fill:#003149;" d="M198.092,73.704v0.586h-0.5v0.492h-0.496v0.5h-0.512v0.414h0.512v0.5h0.496v0.492h0.5v0.586
					h-1.078v-0.5h-0.5v-0.496H196.1v0.996h-1.078v-3.571h1.078V74.7h0.414v-0.496h0.5v-0.5H198.092 M198.16,73.636h-0.068h-1.078
					h-0.068v0.068v0.432h-0.432h-0.068v0.068v0.428h-0.279v-0.928v-0.068H196.1h-1.078h-0.068v0.068v3.571v0.068h0.068h1.078h0.068
					v-0.068v-0.928h0.279v0.428v0.068h0.068h0.432v0.432v0.068h0.068h1.078h0.068v-0.068v-0.586v-0.068h-0.068h-0.432v-0.424v-0.068
					h-0.068h-0.428v-0.432v-0.068h-0.068h-0.444V75.35h0.444h0.068v-0.068v-0.432h0.428h0.068v-0.068v-0.424h0.432h0.068v-0.068
					v-0.586V73.636L198.16,73.636z"/>
				</g>
				<g>
					<polygon style="fill:#1BC4E3;" points="189.251,77.308 189.251,76.677 189.649,76.677 189.649,74.301 189.251,74.301 
					189.251,73.67 191.184,73.67 191.184,74.301 190.787,74.301 190.787,76.677 191.184,76.677 191.184,77.308 				"/>
					<path style="fill:#003149;" d="M191.15,73.704v0.564h-0.397v2.443h0.397v0.564h-0.397h-1.07h-0.397v-0.564h0.397v-2.443h-0.397
					v-0.564h0.397h1.07H191.15 M191.218,73.636h-0.068h-0.397h-1.07h-0.397h-0.068v0.068v0.564v0.068h0.068h0.33v2.308h-0.33h-0.068
					v0.068v0.564v0.068h0.068h0.397h1.07h0.397h0.068v-0.068v-0.564v-0.068h-0.068h-0.33v-2.308h0.33h0.068v-0.068v-0.564V73.636
					L191.218,73.636z"/>
				</g>
			</g>
		</g>
		<path d="M199.028,0.966v78.061H0.863V0.966H199.028 M200.028-0.035H-0.138v80.063h200.167V-0.035L200.028-0.035z"/>
	</g>
</svg>
