<svg
	xmlns="http://www.w3.org/2000/svg" viewBox="0 0 200 80" clip-path="url(#clip)" width="200" height="80">
	<defs>
		<clipPath id="clip" clipPathUnits="objectBoundingBox">
			<rect x="0" y="0" width="200" height="80"/>
		</clipPath>
	</defs>
	<g>
		<rect id="back" x="-0.037" y="0.009" style="fill:#002338;" width="200.079" height="79.909"/>
		<polygon style="fill:#003149;" points="199.934,80.017 199.934,50.8 198.491,50.8 198.491,56.81 195.798,56.81 195.798,50.8 
		191.447,50.8 191.447,54.738 184.404,54.738 184.404,60.748 178.189,60.748 178.189,50.8 173.218,50.8 173.218,56.603 
		166.381,56.603 166.381,50.8 161.617,50.8 161.617,56.188 155.816,56.188 155.816,50.8 148.98,50.8 148.98,53.287 139.451,53.287 
		139.451,50.8 133.651,50.8 133.651,58.054 128.058,58.054 128.058,50.8 123.707,50.8 123.707,54.738 115.628,54.738 
		115.628,59.504 107.963,59.504 107.963,52.872 102.785,52.872 102.785,56.396 98.227,56.396 98.227,52.251 91.805,52.251 
		91.805,57.225 82.276,57.225 82.276,50.8 74.611,50.8 74.611,53.909 68.19,53.909 68.19,50.8 62.389,50.8 62.389,53.701 
		53.689,53.701 53.689,58.883 48.095,58.883 48.095,50.8 43.124,50.8 43.124,55.152 36.08,55.152 36.08,50.8 32.559,50.8 
		32.559,53.494 21.787,53.494 21.787,60.126 16.815,60.126 16.815,50.8 9.357,50.8 9.357,54.531 -0.082,54.531 -0.082,80.017 	"/>
		<polygon style="fill:#004560;" points="199.934,79.853 199.934,64.504 198.491,64.504 198.491,70.552 195.798,70.552 
		195.798,64.504 191.447,64.504 191.447,68.466 184.404,68.466 184.404,74.515 178.189,74.515 178.189,64.504 173.218,64.504 
		173.218,70.343 166.381,70.343 166.381,64.504 161.617,64.504 161.617,69.926 155.816,69.926 155.816,64.504 148.98,64.504 
		148.98,67.007 139.451,67.007 139.451,64.504 133.651,64.504 133.651,71.803 128.058,71.803 128.058,64.504 123.707,64.504 
		123.707,68.466 115.628,68.466 115.628,73.263 107.963,73.263 107.963,66.589 102.785,66.589 102.785,70.135 98.227,70.135 
		98.227,65.964 91.805,65.964 91.805,70.969 82.276,70.969 82.276,64.504 74.611,64.504 74.611,67.632 68.19,67.632 68.19,64.504 
		62.389,64.504 62.389,67.424 53.689,67.424 53.689,72.638 48.095,72.638 48.095,64.504 43.124,64.504 43.124,68.883 36.08,68.883 
		36.08,64.504 32.559,64.504 32.559,67.215 21.787,67.215 21.787,73.889 16.815,73.889 16.815,64.504 9.357,64.504 9.357,68.258 
		-0.082,68.258 -0.082,79.853 	"/>
		<g id="bottom" style="opacity:0.7;">
			<rect x="27.349" y="78.153" style="fill:#00A3C2;" width="1.959" height="1.765"/>
			<rect x="27.349" y="76.388" style="fill:#00A3C2;" width="1.959" height="1.765"/>
			<rect x="27.349" y="74.624" style="fill:#00A3C2;" width="1.959" height="1.764"/>
			<rect x="27.349" y="72.86" style="fill:#0085A4;" width="1.959" height="1.765"/>
			<rect x="25.389" y="78.153" style="fill:#0085A4;" width="1.96" height="1.765"/>
			<rect x="25.389" y="76.388" style="fill:#0085A4;" width="1.96" height="1.765"/>
			<rect x="25.389" y="74.624" style="fill:#0085A4;" width="1.96" height="1.764"/>
			<rect x="25.389" y="72.86" style="fill:#0089A9;" width="1.96" height="1.765"/>
			<rect x="23.431" y="78.153" style="fill:#01A9C9;" width="1.959" height="1.765"/>
			<rect x="23.431" y="76.388" style="fill:#0089A9;" width="1.959" height="1.765"/>
			<rect x="23.431" y="74.624" style="fill:#2CD4F4;" width="1.959" height="1.764"/>
			<rect x="23.431" y="72.86" style="fill:#007897;" width="1.959" height="1.765"/>
			<rect x="21.473" y="78.153" style="fill:#0085A5;" width="1.958" height="1.765"/>
			<rect x="21.473" y="76.388" style="fill:#2CD4F4;" width="1.958" height="1.765"/>
			<rect x="21.473" y="74.624" style="fill:#007897;" width="1.958" height="1.764"/>
			<rect x="21.473" y="72.86" style="fill:#007897;" width="1.958" height="1.765"/>
			<rect x="19.514" y="78.153" style="fill:#0085A5;" width="1.958" height="1.765"/>
			<rect x="19.514" y="76.388" style="fill:#1BC4E3;" width="1.958" height="1.765"/>
			<rect x="19.514" y="74.624" style="fill:#007897;" width="1.958" height="1.764"/>
			<rect x="19.514" y="72.86" style="fill:#009CBC;" width="1.958" height="1.765"/>
			<rect x="17.555" y="78.153" style="fill:#0089A9;" width="1.959" height="1.765"/>
			<rect x="17.555" y="76.388" style="fill:#1BC4E3;" width="1.959" height="1.765"/>
			<rect x="17.555" y="74.624" style="fill:#007897;" width="1.959" height="1.764"/>
			<rect x="17.555" y="72.86" style="fill:#1BC4E3;" width="1.959" height="1.765"/>
			<rect x="15.597" y="78.153" style="fill:#0CB4D4;" width="1.959" height="1.765"/>
			<rect x="15.597" y="76.388" style="fill:#0CB4D4;" width="1.959" height="1.765"/>
			<rect x="15.597" y="74.624" style="fill:#1BC4E3;" width="1.959" height="1.764"/>
			<rect x="15.597" y="72.86" style="fill:#1BC4E3;" width="1.959" height="1.765"/>
			<rect x="13.638" y="78.153" style="fill:#0CB4D4;" width="1.959" height="1.765"/>
			<rect x="13.638" y="76.388" style="fill:#1BC4E3;" width="1.959" height="1.765"/>
			<rect x="13.638" y="74.624" style="fill:#007897;" width="1.959" height="1.764"/>
			<rect x="13.638" y="72.86" style="fill:#1BC4E3;" width="1.959" height="1.765"/>
			<rect x="11.68" y="78.153" style="fill:#0CB4D4;" width="1.958" height="1.765"/>
			<rect x="11.68" y="76.388" style="fill:#0085A5;" width="1.958" height="1.765"/>
			<rect x="11.68" y="74.624" style="fill:#007897;" width="1.958" height="1.764"/>
			<rect x="11.68" y="72.86" style="fill:#1BC4E3;" width="1.958" height="1.765"/>
			<rect x="9.721" y="78.153" style="fill:#0CB4D4;" width="1.959" height="1.765"/>
			<rect x="9.721" y="76.388" style="fill:#0089A9;" width="1.959" height="1.765"/>
			<rect x="9.721" y="74.624" style="fill:#1BC4E3;" width="1.959" height="1.764"/>
			<rect x="9.721" y="72.86" style="fill:#007897;" width="1.959" height="1.765"/>
			<rect x="7.753" y="78.153" style="fill:#0CB4D4;" width="1.968" height="1.765"/>
			<rect x="7.753" y="76.388" style="fill:#0089A9;" width="1.968" height="1.765"/>
			<rect x="7.753" y="74.624" style="fill:#008BAB;" width="1.968" height="1.764"/>
			<rect x="7.753" y="72.86" style="fill:#1BC4E3;" width="1.968" height="1.765"/>
			<rect x="5.793" y="78.153" style="fill:#0CB4D4;" width="1.959" height="1.765"/>
			<rect x="5.793" y="76.388" style="fill:#0CB4D4;" width="1.959" height="1.765"/>
			<rect x="5.793" y="74.624" style="fill:#0089A9;" width="1.959" height="1.764"/>
			<rect x="5.793" y="72.86" style="fill:#007897;" width="1.959" height="1.765"/>
			<rect x="3.835" y="78.153" style="fill:#0CB4D4;" width="1.959" height="1.765"/>
			<rect x="3.835" y="76.388" style="fill:#007695;" width="1.959" height="1.765"/>
			<rect x="3.835" y="74.624" style="fill:#007695;" width="1.959" height="1.764"/>
			<rect x="3.835" y="72.86" style="fill:#007897;" width="1.959" height="1.765"/>
			<rect x="1.876" y="78.153" style="fill:#0CB4D4;" width="1.959" height="1.765"/>
			<rect x="1.876" y="76.388" style="fill:#0CB4D4;" width="1.959" height="1.765"/>
			<rect x="1.876" y="74.624" style="fill:#0CB4D4;" width="1.959" height="1.764"/>
			<rect x="1.876" y="72.86" style="fill:#2CD4F4;" width="1.959" height="1.765"/>
			<rect x="-0.082" y="78.153" style="fill:#008FAF;" width="1.958" height="1.765"/>
			<rect x="-0.082" y="76.388" style="fill:#0CB4D4;" width="1.958" height="1.765"/>
			<rect x="-0.082" y="74.624" style="fill:#0089A9;" width="1.958" height="1.764"/>
			<rect x="-0.082" y="72.86" style="fill:#007897;" width="1.958" height="1.765"/>
			<rect x="68.477" y="78.153" style="fill:#00A3C2;" width="1.958" height="1.765"/>
			<rect x="68.477" y="76.388" style="fill:#00A3C2;" width="1.958" height="1.765"/>
			<rect x="68.477" y="74.624" style="fill:#00A3C2;" width="1.958" height="1.764"/>
			<rect x="68.477" y="72.86" style="fill:#0085A4;" width="1.958" height="1.765"/>
			<rect x="66.517" y="78.153" style="fill:#0085A4;" width="1.96" height="1.765"/>
			<rect x="66.517" y="76.388" style="fill:#0085A4;" width="1.96" height="1.765"/>
			<rect x="66.517" y="74.624" style="fill:#0085A4;" width="1.96" height="1.764"/>
			<rect x="66.517" y="72.86" style="fill:#0089A9;" width="1.96" height="1.765"/>
			<rect x="64.559" y="78.153" style="fill:#01A9C9;" width="1.958" height="1.765"/>
			<rect x="64.559" y="76.388" style="fill:#0089A9;" width="1.958" height="1.765"/>
			<rect x="64.559" y="74.624" style="fill:#2CD4F4;" width="1.958" height="1.764"/>
			<rect x="64.559" y="72.86" style="fill:#007897;" width="1.958" height="1.765"/>
			<rect x="62.601" y="78.153" style="fill:#0085A5;" width="1.958" height="1.765"/>
			<rect x="62.601" y="76.388" style="fill:#2CD4F4;" width="1.958" height="1.765"/>
			<rect x="62.601" y="74.624" style="fill:#007897;" width="1.958" height="1.764"/>
			<rect x="62.601" y="72.86" style="fill:#007897;" width="1.958" height="1.765"/>
			<rect x="60.643" y="78.153" style="fill:#0085A5;" width="1.958" height="1.765"/>
			<rect x="60.643" y="76.388" style="fill:#1BC4E3;" width="1.958" height="1.765"/>
			<rect x="60.643" y="74.624" style="fill:#007897;" width="1.958" height="1.764"/>
			<rect x="60.643" y="72.86" style="fill:#009CBC;" width="1.958" height="1.765"/>
			<rect x="58.683" y="78.153" style="fill:#0089A9;" width="1.96" height="1.765"/>
			<rect x="58.683" y="76.388" style="fill:#1BC4E3;" width="1.96" height="1.765"/>
			<rect x="58.683" y="74.624" style="fill:#007897;" width="1.96" height="1.764"/>
			<rect x="58.683" y="72.86" style="fill:#1BC4E3;" width="1.96" height="1.765"/>
			<rect x="56.725" y="78.153" style="fill:#0CB4D4;" width="1.958" height="1.765"/>
			<rect x="56.725" y="76.388" style="fill:#0CB4D4;" width="1.958" height="1.765"/>
			<rect x="56.725" y="74.624" style="fill:#1BC4E3;" width="1.958" height="1.764"/>
			<rect x="56.725" y="72.86" style="fill:#1BC4E3;" width="1.958" height="1.765"/>
			<rect x="54.766" y="78.153" style="fill:#0CB4D4;" width="1.959" height="1.765"/>
			<rect x="54.766" y="76.388" style="fill:#1BC4E3;" width="1.959" height="1.765"/>
			<rect x="54.766" y="74.624" style="fill:#007897;" width="1.959" height="1.764"/>
			<rect x="54.766" y="72.86" style="fill:#1BC4E3;" width="1.959" height="1.765"/>
			<rect x="52.808" y="78.153" style="fill:#0CB4D4;" width="1.958" height="1.765"/>
			<rect x="52.808" y="76.388" style="fill:#0085A5;" width="1.958" height="1.765"/>
			<rect x="52.808" y="74.624" style="fill:#007897;" width="1.958" height="1.764"/>
			<rect x="52.808" y="72.86" style="fill:#1BC4E3;" width="1.958" height="1.765"/>
			<rect x="50.849" y="78.153" style="fill:#0CB4D4;" width="1.96" height="1.765"/>
			<rect x="50.849" y="76.388" style="fill:#0089A9;" width="1.96" height="1.765"/>
			<rect x="50.849" y="74.624" style="fill:#1BC4E3;" width="1.96" height="1.764"/>
			<rect x="50.849" y="72.86" style="fill:#007897;" width="1.96" height="1.765"/>
			<rect x="48.881" y="78.153" style="fill:#0CB4D4;" width="1.968" height="1.765"/>
			<rect x="48.881" y="76.388" style="fill:#0089A9;" width="1.968" height="1.765"/>
			<rect x="48.881" y="74.624" style="fill:#008BAB;" width="1.968" height="1.764"/>
			<rect x="48.881" y="72.86" style="fill:#1BC4E3;" width="1.968" height="1.765"/>
			<rect x="46.922" y="78.153" style="fill:#0CB4D4;" width="1.959" height="1.765"/>
			<rect x="46.922" y="76.388" style="fill:#0CB4D4;" width="1.959" height="1.765"/>
			<rect x="46.922" y="74.624" style="fill:#0089A9;" width="1.959" height="1.764"/>
			<rect x="46.922" y="72.86" style="fill:#007897;" width="1.959" height="1.765"/>
			<rect x="44.963" y="78.153" style="fill:#0CB4D4;" width="1.958" height="1.765"/>
			<rect x="44.963" y="76.388" style="fill:#007695;" width="1.958" height="1.765"/>
			<rect x="44.963" y="74.624" style="fill:#007695;" width="1.958" height="1.764"/>
			<rect x="44.963" y="72.86" style="fill:#007897;" width="1.958" height="1.765"/>
			<rect x="43.005" y="78.153" style="fill:#0CB4D4;" width="1.959" height="1.765"/>
			<rect x="43.005" y="76.388" style="fill:#0CB4D4;" width="1.959" height="1.765"/>
			<rect x="43.005" y="74.624" style="fill:#0CB4D4;" width="1.959" height="1.764"/>
			<rect x="43.005" y="72.86" style="fill:#2CD4F4;" width="1.959" height="1.765"/>
			<rect x="41.046" y="78.153" style="fill:#008FAF;" width="1.959" height="1.765"/>
			<rect x="41.046" y="76.388" style="fill:#0CB4D4;" width="1.959" height="1.765"/>
			<rect x="41.046" y="74.624" style="fill:#0089A9;" width="1.959" height="1.764"/>
			<rect x="41.046" y="72.86" style="fill:#007897;" width="1.959" height="1.765"/>
			<rect x="39.087" y="78.153" style="fill:#008FAF;" width="1.959" height="1.765"/>
			<rect x="39.087" y="76.388" style="fill:#0085A4;" width="1.959" height="1.765"/>
			<rect x="39.087" y="74.624" style="fill:#0089A9;" width="1.959" height="1.764"/>
			<rect x="39.087" y="72.86" style="fill:#0089A9;" width="1.959" height="1.765"/>
			<rect x="37.128" y="78.153" style="fill:#008FAF;" width="1.959" height="1.765"/>
			<rect x="37.128" y="76.388" style="fill:#0CB4D4;" width="1.959" height="1.765"/>
			<rect x="37.128" y="74.624" style="fill:#0CB4D4;" width="1.959" height="1.764"/>
			<rect x="37.128" y="72.86" style="fill:#0085A5;" width="1.959" height="1.765"/>
			<rect x="35.171" y="78.153" style="fill:#0CB4D4;" width="1.958" height="1.765"/>
			<rect x="35.171" y="76.388" style="fill:#0CB4D4;" width="1.958" height="1.765"/>
			<rect x="35.171" y="74.624" style="fill:#0085A4;" width="1.958" height="1.764"/>
			<rect x="35.171" y="72.86" style="fill:#0085A4;" width="1.958" height="1.765"/>
			<rect x="33.212" y="78.153" style="fill:#0CB4D4;" width="1.959" height="1.765"/>
			<rect x="33.212" y="76.388" style="fill:#0089A9;" width="1.959" height="1.765"/>
			<rect x="33.212" y="74.624" style="fill:#0085A5;" width="1.959" height="1.764"/>
			<rect x="33.212" y="72.86" style="fill:#0085A4;" width="1.959" height="1.765"/>
			<rect x="31.252" y="78.153" style="fill:#0085A4;" width="1.96" height="1.765"/>
			<rect x="31.252" y="76.388" style="fill:#0085A4;" width="1.96" height="1.765"/>
			<rect x="31.252" y="74.624" style="fill:#0085A4;" width="1.96" height="1.764"/>
			<rect x="31.252" y="72.86" style="fill:#0085A4;" width="1.96" height="1.765"/>
			<rect x="29.294" y="78.153" style="fill:#0085A4;" width="1.958" height="1.765"/>
			<rect x="29.294" y="76.388" style="fill:#0085A4;" width="1.958" height="1.765"/>
			<rect x="29.294" y="74.624" style="fill:#0085A4;" width="1.958" height="1.764"/>
			<rect x="29.294" y="72.86" style="fill:#2CD4F4;" width="1.958" height="1.765"/>
			<rect x="97.853" y="78.153" style="fill:#0CB4D4;" width="1.959" height="1.765"/>
			<rect x="97.853" y="76.388" style="fill:#0CB4D4;" width="1.959" height="1.765"/>
			<rect x="97.853" y="74.624" style="fill:#1BC4E3;" width="1.959" height="1.764"/>
			<rect x="97.853" y="72.86" style="fill:#1BC4E3;" width="1.959" height="1.765"/>
			<rect x="95.894" y="78.153" style="fill:#0CB4D4;" width="1.958" height="1.765"/>
			<rect x="95.894" y="76.388" style="fill:#1BC4E3;" width="1.958" height="1.765"/>
			<rect x="95.894" y="74.624" style="fill:#007897;" width="1.958" height="1.764"/>
			<rect x="95.894" y="72.86" style="fill:#1BC4E3;" width="1.958" height="1.765"/>
			<rect x="93.937" y="78.153" style="fill:#0CB4D4;" width="1.958" height="1.765"/>
			<rect x="93.937" y="76.388" style="fill:#0085A5;" width="1.958" height="1.765"/>
			<rect x="93.937" y="74.624" style="fill:#007897;" width="1.958" height="1.764"/>
			<rect x="93.937" y="72.86" style="fill:#1BC4E3;" width="1.958" height="1.765"/>
			<rect x="91.977" y="78.153" style="fill:#0CB4D4;" width="1.96" height="1.765"/>
			<rect x="91.977" y="76.388" style="fill:#0089A9;" width="1.96" height="1.765"/>
			<rect x="91.977" y="74.624" style="fill:#1BC4E3;" width="1.96" height="1.764"/>
			<rect x="91.977" y="72.86" style="fill:#007897;" width="1.96" height="1.765"/>
			<rect x="90.009" y="78.153" style="fill:#0CB4D4;" width="1.968" height="1.765"/>
			<rect x="90.009" y="76.388" style="fill:#0089A9;" width="1.968" height="1.765"/>
			<rect x="90.009" y="74.624" style="fill:#008BAB;" width="1.968" height="1.764"/>
			<rect x="90.009" y="72.86" style="fill:#1BC4E3;" width="1.968" height="1.765"/>
			<rect x="88.05" y="78.153" style="fill:#0CB4D4;" width="1.96" height="1.765"/>
			<rect x="88.05" y="76.388" style="fill:#0CB4D4;" width="1.96" height="1.765"/>
			<rect x="88.05" y="74.624" style="fill:#0089A9;" width="1.96" height="1.764"/>
			<rect x="88.05" y="72.86" style="fill:#007897;" width="1.96" height="1.765"/>
			<rect x="86.091" y="78.153" style="fill:#0CB4D4;" width="1.959" height="1.765"/>
			<rect x="86.091" y="76.388" style="fill:#007695;" width="1.959" height="1.765"/>
			<rect x="86.091" y="74.624" style="fill:#007695;" width="1.959" height="1.764"/>
			<rect x="86.091" y="72.86" style="fill:#007897;" width="1.959" height="1.765"/>
			<rect x="84.133" y="78.153" style="fill:#0CB4D4;" width="1.958" height="1.765"/>
			<rect x="84.133" y="76.388" style="fill:#0CB4D4;" width="1.958" height="1.765"/>
			<rect x="84.133" y="74.624" style="fill:#0CB4D4;" width="1.958" height="1.764"/>
			<rect x="84.133" y="72.86" style="fill:#2CD4F4;" width="1.958" height="1.765"/>
			<rect x="82.175" y="78.153" style="fill:#008FAF;" width="1.958" height="1.765"/>
			<rect x="82.175" y="76.388" style="fill:#0CB4D4;" width="1.958" height="1.765"/>
			<rect x="82.175" y="74.624" style="fill:#0089A9;" width="1.958" height="1.764"/>
			<rect x="82.175" y="72.86" style="fill:#007897;" width="1.958" height="1.765"/>
			<rect x="80.215" y="78.153" style="fill:#008FAF;" width="1.96" height="1.765"/>
			<rect x="80.215" y="76.388" style="fill:#0085A4;" width="1.96" height="1.765"/>
			<rect x="80.215" y="74.624" style="fill:#0089A9;" width="1.96" height="1.764"/>
			<rect x="80.215" y="72.86" style="fill:#0089A9;" width="1.96" height="1.765"/>
			<rect x="78.257" y="78.153" style="fill:#008FAF;" width="1.958" height="1.765"/>
			<rect x="78.257" y="76.388" style="fill:#0CB4D4;" width="1.958" height="1.765"/>
			<rect x="78.257" y="74.624" style="fill:#0CB4D4;" width="1.958" height="1.764"/>
			<rect x="78.257" y="72.86" style="fill:#0085A5;" width="1.958" height="1.765"/>
			<rect x="76.299" y="78.153" style="fill:#0CB4D4;" width="1.958" height="1.765"/>
			<rect x="76.299" y="76.388" style="fill:#0CB4D4;" width="1.958" height="1.765"/>
			<rect x="76.299" y="74.624" style="fill:#0085A4;" width="1.958" height="1.764"/>
			<rect x="76.299" y="72.86" style="fill:#0085A4;" width="1.958" height="1.765"/>
			<rect x="74.34" y="78.153" style="fill:#0CB4D4;" width="1.959" height="1.765"/>
			<rect x="74.34" y="76.388" style="fill:#0089A9;" width="1.959" height="1.765"/>
			<rect x="74.34" y="74.624" style="fill:#0085A5;" width="1.959" height="1.764"/>
			<rect x="74.34" y="72.86" style="fill:#0085A4;" width="1.959" height="1.765"/>
			<rect x="72.38" y="78.153" style="fill:#0085A4;" width="1.96" height="1.765"/>
			<rect x="72.38" y="76.388" style="fill:#0085A4;" width="1.96" height="1.765"/>
			<rect x="72.38" y="74.624" style="fill:#0085A4;" width="1.96" height="1.764"/>
			<rect x="72.38" y="72.86" style="fill:#0085A4;" width="1.96" height="1.765"/>
			<rect x="70.423" y="78.153" style="fill:#0085A4;" width="1.958" height="1.765"/>
			<rect x="70.423" y="76.388" style="fill:#0085A4;" width="1.958" height="1.765"/>
			<rect x="70.423" y="74.624" style="fill:#0085A4;" width="1.958" height="1.764"/>
			<rect x="70.423" y="72.86" style="fill:#2CD4F4;" width="1.958" height="1.765"/>
		</g>
		<g id="heart_2_">
			<rect x="26.255" y="44.701" style="fill:#E2336D;" width="1.584" height="1.609"/>
			<rect x="26.255" y="43.094" style="fill:#E2336D;" width="1.584" height="1.607"/>
			<rect x="24.671" y="46.31" style="fill:#E2336D;" width="1.584" height="1.609"/>
			<rect x="24.671" y="44.701" style="fill:#E2336D;" width="1.584" height="1.609"/>
			<rect x="24.671" y="43.094" style="fill:#E2336D;" width="1.584" height="1.607"/>
			<rect x="23.09" y="47.919" style="fill:#E2336D;" width="1.581" height="1.607"/>
			<rect x="23.09" y="46.31" style="fill:#E2336D;" width="1.581" height="1.609"/>
			<rect x="23.09" y="44.701" style="fill:#E2336D;" width="1.581" height="1.609"/>
			<rect x="21.506" y="46.31" style="fill:#E2336D;" width="1.584" height="1.609"/>
			<rect x="21.506" y="44.701" style="fill:#E2336D;" width="1.584" height="1.609"/>
			<rect x="21.506" y="43.094" style="fill:#E2336D;" width="1.584" height="1.607"/>
			<rect x="19.922" y="44.701" style="fill:#E2336D;" width="1.584" height="1.609"/>
			<rect x="19.922" y="43.094" style="fill:#E2336D;" width="1.584" height="1.607"/>
		</g>
		<g id="heart_1_">
			<rect x="37.094" y="39.075" style="fill:#E2336D;" width="1.214" height="1.209"/>
			<rect x="37.094" y="37.868" style="fill:#E2336D;" width="1.214" height="1.207"/>
			<rect x="35.88" y="40.284" style="fill:#E2336D;" width="1.214" height="1.209"/>
			<rect x="35.88" y="39.075" style="fill:#E2336D;" width="1.214" height="1.209"/>
			<rect x="35.88" y="37.868" style="fill:#E2336D;" width="1.214" height="1.207"/>
			<rect x="34.667" y="41.493" style="fill:#E2336D;" width="1.212" height="1.207"/>
			<rect x="34.667" y="40.284" style="fill:#E2336D;" width="1.212" height="1.209"/>
			<rect x="34.667" y="39.075" style="fill:#E2336D;" width="1.212" height="1.209"/>
			<rect x="33.453" y="40.284" style="fill:#E2336D;" width="1.214" height="1.209"/>
			<rect x="33.453" y="39.075" style="fill:#E2336D;" width="1.214" height="1.209"/>
			<rect x="33.453" y="37.868" style="fill:#E2336D;" width="1.214" height="1.207"/>
			<rect x="32.239" y="39.075" style="fill:#E2336D;" width="1.214" height="1.209"/>
			<rect x="32.239" y="37.868" style="fill:#E2336D;" width="1.214" height="1.207"/>
		</g>
		<g id="heart">
			<rect x="30.001" y="25.877" style="fill:#E2336D;" width="0.845" height="0.824"/>
			<rect x="30.001" y="25.055" style="fill:#E2336D;" width="0.845" height="0.823"/>
			<rect x="29.157" y="26.702" style="fill:#E2336D;" width="0.845" height="0.824"/>
			<rect x="29.157" y="25.877" style="fill:#E2336D;" width="0.845" height="0.824"/>
			<rect x="29.157" y="25.055" style="fill:#E2336D;" width="0.845" height="0.823"/>
			<rect x="28.313" y="27.526" style="fill:#E2336D;" width="0.843" height="0.823"/>
			<rect x="28.313" y="26.702" style="fill:#E2336D;" width="0.843" height="0.824"/>
			<rect x="28.313" y="25.877" style="fill:#E2336D;" width="0.843" height="0.824"/>
			<rect x="27.469" y="26.702" style="fill:#E2336D;" width="0.845" height="0.824"/>
			<rect x="27.469" y="25.877" style="fill:#E2336D;" width="0.845" height="0.824"/>
			<rect x="27.469" y="25.055" style="fill:#E2336D;" width="0.845" height="0.823"/>
			<rect x="26.624" y="25.877" style="fill:#E2336D;" width="0.845" height="0.824"/>
			<rect x="26.624" y="25.055" style="fill:#E2336D;" width="0.845" height="0.823"/>
		</g>
		<g id="satellite">
			<rect x="18.477" y="65.601" style="fill:#949596;" width="1.043" height="1.043"/>
			<rect x="16.396" y="64.563" style="fill:#949596;" width="1.043" height="1.038"/>
			<rect x="17.314" y="54.103" style="fill:#E2336D;" width="1.319" height="1.319"/>
			<rect x="15.353" y="63.52" style="fill:#949596;" width="1.043" height="1.043"/>
			<rect x="14.315" y="71.849" style="fill:#0B6382;" width="1.038" height="1.043"/>
			<rect x="14.315" y="62.476" style="fill:#949596;" width="1.038" height="1.043"/>
			<rect x="13.272" y="71.849" style="fill:#0B6382;" width="1.043" height="1.043"/>
			<rect x="13.272" y="61.438" style="fill:#949596;" width="1.043" height="1.038"/>
			<rect x="12.229" y="71.849" style="fill:#0B6382;" width="1.043" height="1.043"/>
			<rect x="12.229" y="60.395" style="fill:#949596;" width="1.043" height="1.043"/>
			<rect x="11.191" y="71.849" style="fill:#0B6382;" width="1.038" height="1.043"/>
			<rect x="11.191" y="69.768" style="fill:#0B6382;" width="1.038" height="1.043"/>
			<rect x="11.191" y="59.352" style="fill:#949596;" width="1.038" height="1.043"/>
			<rect x="10.148" y="71.849" style="fill:#0B6382;" width="1.043" height="1.043"/>
			<rect x="10.148" y="69.768" style="fill:#0B6382;" width="1.043" height="1.043"/>
			<rect x="10.148" y="58.309" style="fill:#949596;" width="1.043" height="1.043"/>
			<rect x="9.104" y="71.849" style="fill:#0B6382;" width="1.043" height="1.043"/>
			<rect x="9.104" y="69.768" style="fill:#0B6382;" width="1.043" height="1.043"/>
			<rect x="9.104" y="68.725" style="fill:#0B6382;" width="1.043" height="1.043"/>
			<rect x="9.104" y="67.687" style="fill:#0B6382;" width="1.043" height="1.038"/>
			<rect x="9.104" y="66.644" style="fill:#0B6382;" width="1.043" height="1.043"/>
			<rect x="9.104" y="65.601" style="fill:#0B6382;" width="1.043" height="1.043"/>
			<rect x="9.104" y="57.271" style="fill:#949596;" width="1.043" height="1.038"/>
			<rect x="8.061" y="71.849" style="fill:#15819E;" width="1.043" height="1.043"/>
			<rect x="8.061" y="69.768" style="fill:#0B6382;" width="1.043" height="1.043"/>
			<rect x="8.061" y="68.725" style="fill:#0B6382;" width="1.043" height="1.043"/>
			<rect x="8.061" y="67.687" style="fill:#0B6382;" width="1.043" height="1.038"/>
			<rect x="8.061" y="66.644" style="fill:#0B6382;" width="1.043" height="1.043"/>
			<rect x="8.061" y="65.601" style="fill:#0B6382;" width="1.043" height="1.043"/>
			<rect x="8.061" y="56.228" style="fill:#949596;" width="1.043" height="1.043"/>
			<rect x="7.023" y="71.849" style="fill:#15819E;" width="1.038" height="1.043"/>
			<rect x="7.023" y="69.768" style="fill:#0B6382;" width="1.038" height="1.043"/>
			<rect x="7.023" y="68.725" style="fill:#15819E;" width="1.038" height="1.043"/>
			<rect x="7.023" y="67.687" style="fill:#15819E;" width="1.038" height="1.038"/>
			<rect x="7.023" y="66.644" style="fill:#15819E;" width="1.038" height="1.043"/>
			<rect x="7.023" y="65.601" style="fill:#15819E;" width="1.038" height="1.043"/>
			<rect x="7.023" y="55.184" style="fill:#949596;" width="1.038" height="1.043"/>
			<rect x="5.98" y="71.849" style="fill:#15819E;" width="1.043" height="1.043"/>
			<rect x="5.98" y="69.768" style="fill:#15819E;" width="1.043" height="1.043"/>
			<g>
				<polygon style="fill:#BCBEC0;" points="17.439,56.228 17.439,57.271 17.439,58.309 17.439,59.352 17.439,60.395 17.439,61.438 
				17.439,62.476 17.439,63.52 17.439,64.563 18.477,64.563 18.477,63.52 18.477,62.476 18.477,61.438 18.477,60.395 18.477,59.352 
				18.477,58.309 18.477,57.271 18.477,56.228 			"/>
				<polygon style="fill:#BCBEC0;" points="16.396,65.601 15.353,65.601 15.353,64.563 14.315,64.563 14.315,63.52 13.272,63.52 
				13.272,62.476 12.229,62.476 11.191,62.476 11.191,61.438 10.148,61.438 10.148,60.395 9.104,60.395 9.104,59.352 8.061,59.352 
				8.061,58.309 7.023,58.309 7.023,57.271 5.98,57.271 5.98,58.309 5.98,59.352 7.023,59.352 7.023,60.395 8.061,60.395 
				8.061,61.438 9.104,61.438 9.104,62.476 9.104,63.52 10.148,63.52 11.191,63.52 11.191,64.563 12.229,64.563 12.229,65.601 
				13.272,65.601 13.272,66.644 14.315,66.644 15.353,66.644 16.396,66.644 17.439,66.644 18.477,66.644 18.477,65.601 
				17.439,65.601 			"/>
				<polygon style="fill:#003554;" points="12.229,70.812 11.191,70.812 10.148,70.812 9.104,70.812 9.104,71.849 10.148,71.849 
				11.191,71.849 12.229,71.849 13.272,71.849 14.315,71.849 14.315,70.812 13.272,70.812 			"/>
				<polygon style="fill:#003554;" points="8.061,64.563 7.023,64.563 7.023,65.601 8.061,65.601 9.104,65.601 10.148,65.601 
				10.148,64.563 9.104,64.563 9.104,63.52 8.061,63.52 			"/>
			</g>
			<rect x="5.98" y="53.103" style="fill:#949596;" width="1.043" height="1.043"/>
			<rect x="4.937" y="71.849" style="fill:#15819E;" width="1.043" height="1.043"/>
			<rect x="4.937" y="69.768" style="fill:#15819E;" width="1.043" height="1.043"/>
			<rect x="3.899" y="71.849" style="fill:#15819E;" width="1.038" height="1.043"/>
			<rect x="2.856" y="71.849" style="fill:#15819E;" width="1.043" height="1.043"/>
			<g>
				<rect x="15.353" y="64.563" style="fill:#E6E7E8;" width="1.043" height="1.038"/>
				<polygon style="fill:#E6E7E8;" points="15.353,54.146 14.315,54.146 13.272,54.146 12.229,54.146 11.191,54.146 10.148,54.146 
				9.104,54.146 8.061,54.146 7.023,54.146 5.98,54.146 5.98,55.184 5.98,56.228 5.98,57.271 7.023,57.271 7.023,58.309 
				8.061,58.309 8.061,59.352 9.104,59.352 9.104,60.395 10.148,60.395 10.148,61.438 11.191,61.438 11.191,62.476 12.229,62.476 
				13.272,62.476 13.272,61.438 12.229,61.438 12.229,60.395 11.191,60.395 11.191,59.352 10.148,59.352 10.148,58.309 
				9.104,58.309 9.104,57.271 8.061,57.271 8.061,56.228 7.023,56.228 7.023,55.184 8.061,55.184 9.104,55.184 10.148,55.184 
				11.191,55.184 12.229,55.184 13.272,55.184 14.315,55.184 15.353,55.184 16.396,55.184 16.396,54.146 			"/>
				<rect x="14.315" y="63.52" style="fill:#E6E7E8;" width="1.038" height="1.043"/>
				<rect x="13.272" y="62.476" style="fill:#E6E7E8;" width="1.043" height="1.043"/>
				<polygon style="fill:#003554;" points="7.023,70.812 5.98,70.812 4.937,70.812 3.899,70.812 2.856,70.812 2.856,71.849 
				3.899,71.849 4.937,71.849 5.98,71.849 7.023,71.849 8.061,71.849 9.104,71.849 9.104,70.812 8.061,70.812 			"/>
			</g>
			<rect x="1.812" y="71.849" style="fill:#15819E;" width="1.043" height="1.043"/>
		</g>
		<g id="bottom_1_" style="opacity:0.7;">
			<rect x="127.355" y="78.153" style="fill:#00A3C2;" width="1.965" height="1.765"/>
			<rect x="127.355" y="76.388" style="fill:#00A3C2;" width="1.965" height="1.765"/>
			<rect x="127.355" y="74.624" style="fill:#00A3C2;" width="1.965" height="1.764"/>
			<rect x="127.355" y="72.86" style="fill:#0085A4;" width="1.965" height="1.765"/>
			<rect x="125.389" y="78.153" style="fill:#0085A4;" width="1.966" height="1.765"/>
			<rect x="125.389" y="76.388" style="fill:#0085A4;" width="1.966" height="1.765"/>
			<rect x="125.389" y="74.624" style="fill:#0085A4;" width="1.966" height="1.764"/>
			<rect x="125.389" y="72.86" style="fill:#0089A9;" width="1.966" height="1.765"/>
			<rect x="123.425" y="78.153" style="fill:#01A9C9;" width="1.965" height="1.765"/>
			<rect x="123.425" y="76.388" style="fill:#0089A9;" width="1.965" height="1.765"/>
			<rect x="123.425" y="74.624" style="fill:#2CD4F4;" width="1.965" height="1.764"/>
			<rect x="123.425" y="72.86" style="fill:#007897;" width="1.965" height="1.765"/>
			<rect x="121.46" y="78.153" style="fill:#0085A5;" width="1.964" height="1.765"/>
			<rect x="121.46" y="76.388" style="fill:#2CD4F4;" width="1.964" height="1.765"/>
			<rect x="121.46" y="74.624" style="fill:#007897;" width="1.964" height="1.764"/>
			<rect x="121.46" y="72.86" style="fill:#007897;" width="1.964" height="1.765"/>
			<rect x="119.495" y="78.153" style="fill:#0085A5;" width="1.965" height="1.765"/>
			<rect x="119.495" y="76.388" style="fill:#1BC4E3;" width="1.965" height="1.765"/>
			<rect x="119.495" y="74.624" style="fill:#007897;" width="1.965" height="1.764"/>
			<rect x="119.495" y="72.86" style="fill:#009CBC;" width="1.965" height="1.765"/>
			<rect x="117.53" y="78.153" style="fill:#0089A9;" width="1.965" height="1.765"/>
			<rect x="117.53" y="76.388" style="fill:#1BC4E3;" width="1.965" height="1.765"/>
			<rect x="117.53" y="74.624" style="fill:#007897;" width="1.965" height="1.764"/>
			<rect x="117.53" y="72.86" style="fill:#1BC4E3;" width="1.965" height="1.765"/>
			<rect x="115.565" y="78.153" style="fill:#0CB4D4;" width="1.965" height="1.765"/>
			<rect x="115.565" y="76.388" style="fill:#0CB4D4;" width="1.965" height="1.765"/>
			<rect x="115.565" y="74.624" style="fill:#1BC4E3;" width="1.965" height="1.764"/>
			<rect x="115.565" y="72.86" style="fill:#1BC4E3;" width="1.965" height="1.765"/>
			<rect x="113.6" y="78.153" style="fill:#0CB4D4;" width="1.965" height="1.765"/>
			<rect x="113.6" y="76.388" style="fill:#1BC4E3;" width="1.965" height="1.765"/>
			<rect x="113.6" y="74.624" style="fill:#007897;" width="1.965" height="1.764"/>
			<rect x="113.6" y="72.86" style="fill:#1BC4E3;" width="1.965" height="1.765"/>
			<rect x="111.635" y="78.153" style="fill:#0CB4D4;" width="1.965" height="1.765"/>
			<rect x="111.635" y="76.388" style="fill:#0085A5;" width="1.965" height="1.765"/>
			<rect x="111.635" y="74.624" style="fill:#007897;" width="1.965" height="1.764"/>
			<rect x="111.635" y="72.86" style="fill:#1BC4E3;" width="1.965" height="1.765"/>
			<rect x="109.67" y="78.153" style="fill:#0CB4D4;" width="1.965" height="1.765"/>
			<rect x="109.67" y="76.388" style="fill:#0089A9;" width="1.965" height="1.765"/>
			<rect x="109.67" y="74.624" style="fill:#1BC4E3;" width="1.965" height="1.764"/>
			<rect x="109.67" y="72.86" style="fill:#007897;" width="1.965" height="1.765"/>
			<rect x="107.695" y="78.153" style="fill:#0CB4D4;" width="1.975" height="1.765"/>
			<rect x="107.695" y="76.388" style="fill:#0089A9;" width="1.975" height="1.765"/>
			<rect x="107.695" y="74.624" style="fill:#008BAB;" width="1.975" height="1.764"/>
			<rect x="107.695" y="72.86" style="fill:#1BC4E3;" width="1.975" height="1.765"/>
			<rect x="105.73" y="78.153" style="fill:#0CB4D4;" width="1.965" height="1.765"/>
			<rect x="105.73" y="76.388" style="fill:#0CB4D4;" width="1.965" height="1.765"/>
			<rect x="105.73" y="74.624" style="fill:#0089A9;" width="1.965" height="1.764"/>
			<rect x="105.73" y="72.86" style="fill:#007897;" width="1.965" height="1.765"/>
			<rect x="103.765" y="78.153" style="fill:#0CB4D4;" width="1.965" height="1.765"/>
			<rect x="103.765" y="76.388" style="fill:#007695;" width="1.965" height="1.765"/>
			<rect x="103.765" y="74.624" style="fill:#007695;" width="1.965" height="1.764"/>
			<rect x="103.765" y="72.86" style="fill:#007897;" width="1.965" height="1.765"/>
			<rect x="101.8" y="78.153" style="fill:#0CB4D4;" width="1.965" height="1.765"/>
			<rect x="101.8" y="76.388" style="fill:#0CB4D4;" width="1.965" height="1.765"/>
			<rect x="101.8" y="74.624" style="fill:#0CB4D4;" width="1.965" height="1.764"/>
			<rect x="101.8" y="72.86" style="fill:#2CD4F4;" width="1.965" height="1.765"/>
			<rect x="99.835" y="78.153" style="fill:#008FAF;" width="1.965" height="1.765"/>
			<rect x="99.835" y="76.388" style="fill:#0CB4D4;" width="1.965" height="1.765"/>
			<rect x="99.835" y="74.624" style="fill:#0089A9;" width="1.965" height="1.764"/>
			<rect x="99.835" y="72.86" style="fill:#007897;" width="1.965" height="1.765"/>
			<rect x="168.618" y="78.153" style="fill:#00A3C2;" width="1.965" height="1.765"/>
			<rect x="168.618" y="76.388" style="fill:#00A3C2;" width="1.965" height="1.765"/>
			<rect x="168.618" y="74.624" style="fill:#00A3C2;" width="1.965" height="1.764"/>
			<rect x="168.618" y="72.86" style="fill:#0085A4;" width="1.965" height="1.765"/>
			<rect x="166.652" y="78.153" style="fill:#0085A4;" width="1.966" height="1.765"/>
			<rect x="166.652" y="76.388" style="fill:#0085A4;" width="1.966" height="1.765"/>
			<rect x="166.652" y="74.624" style="fill:#0085A4;" width="1.966" height="1.764"/>
			<rect x="166.652" y="72.86" style="fill:#0089A9;" width="1.966" height="1.765"/>
			<rect x="164.687" y="78.153" style="fill:#01A9C9;" width="1.965" height="1.765"/>
			<rect x="164.687" y="76.388" style="fill:#0089A9;" width="1.965" height="1.765"/>
			<rect x="164.687" y="74.624" style="fill:#2CD4F4;" width="1.965" height="1.764"/>
			<rect x="164.687" y="72.86" style="fill:#007897;" width="1.965" height="1.765"/>
			<rect x="162.723" y="78.153" style="fill:#0085A5;" width="1.964" height="1.765"/>
			<rect x="162.723" y="76.388" style="fill:#2CD4F4;" width="1.964" height="1.765"/>
			<rect x="162.723" y="74.624" style="fill:#007897;" width="1.964" height="1.764"/>
			<rect x="162.723" y="72.86" style="fill:#007897;" width="1.964" height="1.765"/>
			<rect x="160.758" y="78.153" style="fill:#0085A5;" width="1.964" height="1.765"/>
			<rect x="160.758" y="76.388" style="fill:#1BC4E3;" width="1.964" height="1.765"/>
			<rect x="160.758" y="74.624" style="fill:#007897;" width="1.964" height="1.764"/>
			<rect x="160.758" y="72.86" style="fill:#009CBC;" width="1.964" height="1.765"/>
			<rect x="158.792" y="78.153" style="fill:#0089A9;" width="1.966" height="1.765"/>
			<rect x="158.792" y="76.388" style="fill:#1BC4E3;" width="1.966" height="1.765"/>
			<rect x="158.792" y="74.624" style="fill:#007897;" width="1.966" height="1.764"/>
			<rect x="158.792" y="72.86" style="fill:#1BC4E3;" width="1.966" height="1.765"/>
			<rect x="156.827" y="78.153" style="fill:#0CB4D4;" width="1.965" height="1.765"/>
			<rect x="156.827" y="76.388" style="fill:#0CB4D4;" width="1.965" height="1.765"/>
			<rect x="156.827" y="74.624" style="fill:#1BC4E3;" width="1.965" height="1.764"/>
			<rect x="156.827" y="72.86" style="fill:#1BC4E3;" width="1.965" height="1.765"/>
			<rect x="154.863" y="78.153" style="fill:#0CB4D4;" width="1.965" height="1.765"/>
			<rect x="154.863" y="76.388" style="fill:#1BC4E3;" width="1.965" height="1.765"/>
			<rect x="154.863" y="74.624" style="fill:#007897;" width="1.965" height="1.764"/>
			<rect x="154.863" y="72.86" style="fill:#1BC4E3;" width="1.965" height="1.765"/>
			<rect x="152.898" y="78.153" style="fill:#0CB4D4;" width="1.964" height="1.765"/>
			<rect x="152.898" y="76.388" style="fill:#0085A5;" width="1.964" height="1.765"/>
			<rect x="152.898" y="74.624" style="fill:#007897;" width="1.964" height="1.764"/>
			<rect x="152.898" y="72.86" style="fill:#1BC4E3;" width="1.964" height="1.765"/>
			<rect x="150.932" y="78.153" style="fill:#0CB4D4;" width="1.966" height="1.765"/>
			<rect x="150.932" y="76.388" style="fill:#0089A9;" width="1.966" height="1.765"/>
			<rect x="150.932" y="74.624" style="fill:#1BC4E3;" width="1.966" height="1.764"/>
			<rect x="150.932" y="72.86" style="fill:#007897;" width="1.966" height="1.765"/>
			<rect x="148.958" y="78.153" style="fill:#0CB4D4;" width="1.975" height="1.765"/>
			<rect x="148.958" y="76.388" style="fill:#0089A9;" width="1.975" height="1.765"/>
			<rect x="148.958" y="74.624" style="fill:#008BAB;" width="1.975" height="1.764"/>
			<rect x="148.958" y="72.86" style="fill:#1BC4E3;" width="1.975" height="1.765"/>
			<rect x="146.992" y="78.153" style="fill:#0CB4D4;" width="1.965" height="1.765"/>
			<rect x="146.992" y="76.388" style="fill:#0CB4D4;" width="1.965" height="1.765"/>
			<rect x="146.992" y="74.624" style="fill:#0089A9;" width="1.965" height="1.764"/>
			<rect x="146.992" y="72.86" style="fill:#007897;" width="1.965" height="1.765"/>
			<rect x="145.027" y="78.153" style="fill:#0CB4D4;" width="1.965" height="1.765"/>
			<rect x="145.027" y="76.388" style="fill:#007695;" width="1.965" height="1.765"/>
			<rect x="145.027" y="74.624" style="fill:#007695;" width="1.965" height="1.764"/>
			<rect x="145.027" y="72.86" style="fill:#007897;" width="1.965" height="1.765"/>
			<rect x="143.062" y="78.153" style="fill:#0CB4D4;" width="1.965" height="1.765"/>
			<rect x="143.062" y="76.388" style="fill:#0CB4D4;" width="1.965" height="1.765"/>
			<rect x="143.062" y="74.624" style="fill:#0CB4D4;" width="1.965" height="1.764"/>
			<rect x="143.062" y="72.86" style="fill:#2CD4F4;" width="1.965" height="1.765"/>
			<rect x="141.097" y="78.153" style="fill:#008FAF;" width="1.965" height="1.765"/>
			<rect x="141.097" y="76.388" style="fill:#0CB4D4;" width="1.965" height="1.765"/>
			<rect x="141.097" y="74.624" style="fill:#0089A9;" width="1.965" height="1.764"/>
			<rect x="141.097" y="72.86" style="fill:#007897;" width="1.965" height="1.765"/>
			<rect x="139.132" y="78.153" style="fill:#008FAF;" width="1.965" height="1.765"/>
			<rect x="139.132" y="76.388" style="fill:#0085A4;" width="1.965" height="1.765"/>
			<rect x="139.132" y="74.624" style="fill:#0089A9;" width="1.965" height="1.764"/>
			<rect x="139.132" y="72.86" style="fill:#0089A9;" width="1.965" height="1.765"/>
			<rect x="137.167" y="78.153" style="fill:#008FAF;" width="1.965" height="1.765"/>
			<rect x="137.167" y="76.388" style="fill:#0CB4D4;" width="1.965" height="1.765"/>
			<rect x="137.167" y="74.624" style="fill:#0CB4D4;" width="1.965" height="1.764"/>
			<rect x="137.167" y="72.86" style="fill:#0085A5;" width="1.965" height="1.765"/>
			<rect x="135.203" y="78.153" style="fill:#0CB4D4;" width="1.964" height="1.765"/>
			<rect x="135.203" y="76.388" style="fill:#0CB4D4;" width="1.964" height="1.765"/>
			<rect x="135.203" y="74.624" style="fill:#0085A4;" width="1.964" height="1.764"/>
			<rect x="135.203" y="72.86" style="fill:#0085A4;" width="1.964" height="1.765"/>
			<rect x="133.238" y="78.153" style="fill:#0CB4D4;" width="1.965" height="1.765"/>
			<rect x="133.238" y="76.388" style="fill:#0089A9;" width="1.965" height="1.765"/>
			<rect x="133.238" y="74.624" style="fill:#0085A5;" width="1.965" height="1.764"/>
			<rect x="133.238" y="72.86" style="fill:#0085A4;" width="1.965" height="1.765"/>
			<rect x="131.272" y="78.153" style="fill:#0085A4;" width="1.966" height="1.765"/>
			<rect x="131.272" y="76.388" style="fill:#0085A4;" width="1.966" height="1.765"/>
			<rect x="131.272" y="74.624" style="fill:#0085A4;" width="1.966" height="1.764"/>
			<rect x="131.272" y="72.86" style="fill:#0085A4;" width="1.966" height="1.765"/>
			<rect x="129.307" y="78.153" style="fill:#0085A4;" width="1.964" height="1.765"/>
			<rect x="129.307" y="76.388" style="fill:#0085A4;" width="1.964" height="1.765"/>
			<rect x="129.307" y="74.624" style="fill:#0085A4;" width="1.964" height="1.764"/>
			<rect x="129.307" y="72.86" style="fill:#2CD4F4;" width="1.964" height="1.765"/>
			<rect x="198.09" y="78.153" style="fill:#0CB4D4;" width="1.965" height="1.765"/>
			<rect x="198.09" y="76.388" style="fill:#0CB4D4;" width="1.965" height="1.765"/>
			<rect x="198.09" y="74.624" style="fill:#1BC4E3;" width="1.965" height="1.764"/>
			<rect x="198.09" y="72.86" style="fill:#1BC4E3;" width="1.965" height="1.765"/>
			<rect x="196.125" y="78.153" style="fill:#0CB4D4;" width="1.965" height="1.765"/>
			<rect x="196.125" y="76.388" style="fill:#1BC4E3;" width="1.965" height="1.765"/>
			<rect x="196.125" y="74.624" style="fill:#007897;" width="1.965" height="1.764"/>
			<rect x="196.125" y="72.86" style="fill:#1BC4E3;" width="1.965" height="1.765"/>
			<rect x="194.161" y="78.153" style="fill:#0CB4D4;" width="1.964" height="1.765"/>
			<rect x="194.161" y="76.388" style="fill:#0085A5;" width="1.964" height="1.765"/>
			<rect x="194.161" y="74.624" style="fill:#007897;" width="1.964" height="1.764"/>
			<rect x="194.161" y="72.86" style="fill:#1BC4E3;" width="1.964" height="1.765"/>
			<rect x="192.195" y="78.153" style="fill:#0CB4D4;" width="1.966" height="1.765"/>
			<rect x="192.195" y="76.388" style="fill:#0089A9;" width="1.966" height="1.765"/>
			<rect x="192.195" y="74.624" style="fill:#1BC4E3;" width="1.966" height="1.764"/>
			<rect x="192.195" y="72.86" style="fill:#007897;" width="1.966" height="1.765"/>
			<rect x="190.221" y="78.153" style="fill:#0CB4D4;" width="1.974" height="1.765"/>
			<rect x="190.221" y="76.388" style="fill:#0089A9;" width="1.974" height="1.765"/>
			<rect x="190.221" y="74.624" style="fill:#008BAB;" width="1.974" height="1.764"/>
			<rect x="190.221" y="72.86" style="fill:#1BC4E3;" width="1.974" height="1.765"/>
			<rect x="188.255" y="78.153" style="fill:#0CB4D4;" width="1.966" height="1.765"/>
			<rect x="188.255" y="76.388" style="fill:#0CB4D4;" width="1.966" height="1.765"/>
			<rect x="188.255" y="74.624" style="fill:#0089A9;" width="1.966" height="1.764"/>
			<rect x="188.255" y="72.86" style="fill:#007897;" width="1.966" height="1.765"/>
			<rect x="186.29" y="78.153" style="fill:#0CB4D4;" width="1.965" height="1.765"/>
			<rect x="186.29" y="76.388" style="fill:#0CB4D4;" width="1.965" height="1.765"/>
			<rect x="186.29" y="74.624" style="fill:#0CB4D4;" width="1.965" height="1.764"/>
			<rect x="186.29" y="72.86" style="fill:#0CB4D4;" width="1.965" height="1.765"/>
			<rect x="184.325" y="78.153" style="fill:#0CB4D4;" width="1.965" height="1.765"/>
			<rect x="184.325" y="76.388" style="fill:#0CB4D4;" width="1.965" height="1.765"/>
			<rect x="184.325" y="74.624" style="fill:#0CB4D4;" width="1.965" height="1.764"/>
			<rect x="184.325" y="72.86" style="fill:#2CD4F4;" width="1.965" height="1.765"/>
			<rect x="182.36" y="78.153" style="fill:#008FAF;" width="1.964" height="1.765"/>
			<rect x="182.36" y="76.388" style="fill:#0CB4D4;" width="1.964" height="1.765"/>
			<rect x="182.36" y="74.624" style="fill:#0089A9;" width="1.964" height="1.764"/>
			<rect x="182.36" y="72.86" style="fill:#007897;" width="1.964" height="1.765"/>
			<rect x="180.394" y="78.153" style="fill:#008FAF;" width="1.966" height="1.765"/>
			<rect x="180.394" y="76.388" style="fill:#0085A4;" width="1.966" height="1.765"/>
			<rect x="180.394" y="74.624" style="fill:#0089A9;" width="1.966" height="1.764"/>
			<rect x="180.394" y="72.86" style="fill:#0089A9;" width="1.966" height="1.765"/>
			<rect x="178.43" y="78.153" style="fill:#008FAF;" width="1.965" height="1.765"/>
			<rect x="178.43" y="76.388" style="fill:#0CB4D4;" width="1.965" height="1.765"/>
			<rect x="178.43" y="74.624" style="fill:#0CB4D4;" width="1.965" height="1.764"/>
			<rect x="178.43" y="72.86" style="fill:#0085A5;" width="1.965" height="1.765"/>
			<rect x="176.465" y="78.153" style="fill:#0CB4D4;" width="1.964" height="1.765"/>
			<rect x="176.465" y="76.388" style="fill:#0CB4D4;" width="1.964" height="1.765"/>
			<rect x="176.465" y="74.624" style="fill:#0085A4;" width="1.964" height="1.764"/>
			<rect x="176.465" y="72.86" style="fill:#0085A4;" width="1.964" height="1.765"/>
			<rect x="174.5" y="78.153" style="fill:#0CB4D4;" width="1.965" height="1.765"/>
			<rect x="174.5" y="76.388" style="fill:#0089A9;" width="1.965" height="1.765"/>
			<rect x="174.5" y="74.624" style="fill:#0085A5;" width="1.965" height="1.764"/>
			<rect x="174.5" y="72.86" style="fill:#0085A4;" width="1.965" height="1.765"/>
			<rect x="172.534" y="78.153" style="fill:#0085A4;" width="1.966" height="1.765"/>
			<rect x="172.534" y="76.388" style="fill:#0085A4;" width="1.966" height="1.765"/>
			<rect x="172.534" y="74.624" style="fill:#0085A4;" width="1.966" height="1.764"/>
			<rect x="172.534" y="72.86" style="fill:#0085A4;" width="1.966" height="1.765"/>
			<rect x="170.57" y="78.153" style="fill:#0085A4;" width="1.964" height="1.765"/>
			<rect x="170.57" y="76.388" style="fill:#0085A4;" width="1.964" height="1.765"/>
			<rect x="170.57" y="74.624" style="fill:#0085A4;" width="1.964" height="1.764"/>
			<rect x="170.57" y="72.86" style="fill:#2CD4F4;" width="1.964" height="1.765"/>
		</g>
		<g>
			<g id="stars">
				<rect x="77.206" y="52.005" style="fill:#15819E;" width="0.623" height="0.623"/>
				<rect x="44.621" y="38.143" style="fill:#15819E;" width="0.554" height="0.554"/>
				<rect x="19.976" y="11.625" style="fill:#15819E;" width="0.554" height="0.554"/>
				<rect x="38" y="18.145" style="fill:#15819E;" width="0.792" height="0.792"/>
				<rect x="4.276" y="12.914" style="fill:#15819E;" width="0.831" height="0.831"/>
				<rect x="10.928" y="23.453" style="fill:#15819E;" width="0.792" height="0.792"/>
				<rect x="24.198" y="29.304" style="fill:#15819E;" width="0.792" height="0.792"/>
				<rect x="71.918" y="22.686" style="fill:#15819E;" width="0.831" height="0.831"/>
				<rect x="49.133" y="9.778" style="fill:#15819E;" width="0.792" height="0.792"/>
				<rect x="59.103" y="36.902" style="fill:#15819E;" width="0.831" height="0.831"/>
				<rect x="10.247" y="2.801" style="fill:#15819E;" width="0.554" height="0.554"/>
				<rect x="26.969" y="18.354" style="fill:#15819E;" width="0.528" height="0.528"/>
				<rect x="43.988" y="20.069" style="fill:#15819E;" width="0.792" height="0.792"/>
				<rect x="61.616" y="12.868" style="fill:#15819E;" width="0.831" height="0.831"/>
				<rect x="55.138" y="55.407" style="fill:#15819E;" width="0.831" height="0.83"/>
				<rect x="53.661" y="68.542" style="fill:#15819E;" width="0.831" height="0.83"/>
				<rect x="81.852" y="32.69" style="fill:#15819E;" width="0.792" height="0.792"/>
				<rect x="27.569" y="58.34" style="fill:#15819E;" width="0.528" height="0.528"/>
				<rect x="43.322" y="63.705" style="fill:#15819E;" width="0.528" height="0.528"/>
				<rect x="3.749" y="61.363" style="fill:#15819E;" width="0.528" height="0.528"/>
				<rect x="30.793" y="68.015" style="fill:#15819E;" width="0.831" height="0.831"/>
				<rect x="83.376" y="22.376" style="fill:#15819E;" width="0.554" height="0.554"/>
				<rect x="86.117" y="40.826" style="fill:#15819E;" width="0.792" height="0.792"/>
				<rect x="60.717" y="19.673" style="fill:#15819E;" width="0.554" height="0.554"/>
				<rect x="46.022" y="46.704" style="fill:#15819E;" width="0.554" height="0.554"/>
				<rect x="84.48" y="54.74" style="fill:#15819E;" width="0.528" height="0.528"/>
				<rect x="61.103" y="46.702" style="fill:#15819E;" width="0.831" height="0.831"/>
				<rect x="77.19" y="6.392" style="fill:#15819E;" width="0.831" height="0.831"/>
				<rect x="68.964" y="60.163" style="fill:#15819E;" width="0.554" height="0.554"/>
				<rect x="82.013" y="11.881" style="fill:#15819E;" width="0.831" height="0.831"/>
				<rect x="56.928" y="1.517" style="fill:#15819E;" width="0.554" height="0.554"/>
				<rect x="34.462" y="11.625" style="fill:#15819E;" width="0.554" height="0.554"/>
				<rect x="18.261" y="38.407" style="fill:#15819E;" width="0.792" height="0.792"/>
				<rect x="5.542" y="45.729" style="fill:#15819E;" width="0.792" height="0.792"/>
				<rect x="38.697" y="28.798" style="fill:#15819E;" width="0.528" height="0.528"/>
				<rect x="35.175" y="50.437" style="fill:#15819E;" width="0.792" height="0.792"/>
				<rect x="6.827" y="31.898" style="fill:#15819E;" width="0.528" height="0.528"/>
				<rect x="80.996" y="63.674" style="fill:#15819E;" width="0.831" height="0.83"/>
				<rect x="71.99" y="34.517" style="fill:#15819E;" width="0.528" height="0.528"/>
			</g>
			<g id="stars_1_">
				<rect x="169.397" y="53.069" style="fill:#15819E;" width="0.623" height="0.623"/>
				<rect x="136.811" y="39.207" style="fill:#15819E;" width="0.554" height="0.554"/>
				<rect x="112.166" y="12.689" style="fill:#15819E;" width="0.554" height="0.554"/>
				<rect x="130.19" y="19.209" style="fill:#15819E;" width="0.792" height="0.792"/>
				<rect x="96.466" y="13.978" style="fill:#15819E;" width="0.831" height="0.831"/>
				<rect x="103.118" y="24.517" style="fill:#15819E;" width="0.792" height="0.792"/>
				<rect x="116.388" y="30.368" style="fill:#15819E;" width="0.792" height="0.792"/>
				<rect x="164.108" y="23.75" style="fill:#15819E;" width="0.831" height="0.831"/>
				<rect x="141.323" y="10.842" style="fill:#15819E;" width="0.792" height="0.792"/>
				<rect x="151.293" y="37.965" style="fill:#15819E;" width="0.831" height="0.831"/>
				<rect x="102.437" y="3.864" style="fill:#15819E;" width="0.554" height="0.554"/>
				<rect x="119.159" y="19.418" style="fill:#15819E;" width="0.528" height="0.528"/>
				<rect x="136.178" y="21.133" style="fill:#15819E;" width="0.792" height="0.792"/>
				<rect x="153.806" y="13.932" style="fill:#15819E;" width="0.831" height="0.831"/>
				<rect x="147.328" y="56.47" style="fill:#15819E;" width="0.831" height="0.83"/>
				<rect x="145.851" y="69.606" style="fill:#15819E;" width="0.831" height="0.83"/>
				<rect x="174.042" y="33.754" style="fill:#15819E;" width="0.792" height="0.792"/>
				<rect x="119.759" y="59.404" style="fill:#15819E;" width="0.528" height="0.528"/>
				<rect x="135.512" y="64.769" style="fill:#15819E;" width="0.528" height="0.528"/>
				<rect x="95.939" y="62.427" style="fill:#15819E;" width="0.528" height="0.528"/>
				<rect x="122.983" y="69.078" style="fill:#15819E;" width="0.831" height="0.831"/>
				<rect x="175.566" y="23.44" style="fill:#15819E;" width="0.554" height="0.554"/>
				<rect x="178.307" y="41.89" style="fill:#15819E;" width="0.792" height="0.792"/>
				<rect x="152.907" y="20.737" style="fill:#15819E;" width="0.554" height="0.554"/>
				<rect x="138.212" y="47.768" style="fill:#15819E;" width="0.554" height="0.554"/>
				<rect x="176.67" y="55.804" style="fill:#15819E;" width="0.528" height="0.528"/>
				<rect x="153.293" y="47.765" style="fill:#15819E;" width="0.831" height="0.831"/>
				<rect x="169.38" y="7.456" style="fill:#15819E;" width="0.831" height="0.831"/>
				<rect x="161.154" y="61.227" style="fill:#15819E;" width="0.554" height="0.554"/>
				<rect x="174.203" y="12.945" style="fill:#15819E;" width="0.831" height="0.831"/>
				<rect x="149.119" y="2.581" style="fill:#15819E;" width="0.554" height="0.554"/>
				<rect x="126.653" y="12.689" style="fill:#15819E;" width="0.554" height="0.554"/>
				<rect x="110.451" y="39.471" style="fill:#15819E;" width="0.792" height="0.792"/>
				<rect x="97.732" y="46.793" style="fill:#15819E;" width="0.792" height="0.792"/>
				<rect x="130.887" y="29.861" style="fill:#15819E;" width="0.528" height="0.528"/>
				<rect x="127.365" y="51.501" style="fill:#15819E;" width="0.792" height="0.792"/>
				<rect x="99.017" y="32.962" style="fill:#15819E;" width="0.528" height="0.528"/>
				<rect x="173.186" y="64.738" style="fill:#15819E;" width="0.831" height="0.83"/>
				<rect x="164.18" y="35.581" style="fill:#15819E;" width="0.528" height="0.528"/>
			</g>
			<g id="stars_2_">
				<rect x="187.218" y="15.206" style="fill:#15819E;" width="0.831" height="0.831"/>
				<rect x="193.869" y="25.745" style="fill:#15819E;" width="0.792" height="0.792"/>
				<rect x="193.189" y="5.092" style="fill:#15819E;" width="0.554" height="0.554"/>
				<rect x="186.691" y="63.655" style="fill:#15819E;" width="0.528" height="0.528"/>
				<rect x="194.722" y="56.321" style="fill:#15819E;" width="0.792" height="0.792"/>
				<rect x="188.484" y="48.021" style="fill:#15819E;" width="0.792" height="0.792"/>
				<rect x="189.769" y="34.19" style="fill:#15819E;" width="0.528" height="0.528"/>
			</g>
		</g>
		<g id="heart_3_">
			<rect x="179.466" y="6.108" style="fill:#E2336D;" width="1.584" height="1.609"/>
			<rect x="179.466" y="4.501" style="fill:#E2336D;" width="1.584" height="1.607"/>
			<rect x="177.883" y="7.717" style="fill:#E2336D;" width="1.584" height="1.609"/>
			<rect x="177.883" y="6.108" style="fill:#E2336D;" width="1.584" height="1.609"/>
			<rect x="177.883" y="4.501" style="fill:#E2336D;" width="1.584" height="1.607"/>
			<rect x="176.302" y="9.326" style="fill:#E2336D;" width="1.581" height="1.607"/>
			<rect x="176.302" y="7.717" style="fill:#E2336D;" width="1.581" height="1.609"/>
			<rect x="176.302" y="6.108" style="fill:#E2336D;" width="1.581" height="1.609"/>
			<rect x="174.718" y="7.717" style="fill:#E2336D;" width="1.584" height="1.609"/>
			<rect x="174.718" y="6.108" style="fill:#E2336D;" width="1.584" height="1.609"/>
			<rect x="174.718" y="4.501" style="fill:#E2336D;" width="1.584" height="1.607"/>
			<rect x="173.134" y="6.108" style="fill:#E2336D;" width="1.584" height="1.609"/>
			<rect x="173.134" y="4.501" style="fill:#E2336D;" width="1.584" height="1.607"/>
		</g>
		<g id="heart_4_">
			<rect x="169.144" y="14.117" style="fill:#E2336D;" width="1.214" height="1.209"/>
			<rect x="169.144" y="12.91" style="fill:#E2336D;" width="1.214" height="1.207"/>
			<rect x="167.93" y="15.326" style="fill:#E2336D;" width="1.214" height="1.209"/>
			<rect x="167.93" y="14.117" style="fill:#E2336D;" width="1.214" height="1.209"/>
			<rect x="167.93" y="12.91" style="fill:#E2336D;" width="1.214" height="1.207"/>
			<rect x="166.718" y="16.535" style="fill:#E2336D;" width="1.212" height="1.207"/>
			<rect x="166.718" y="15.326" style="fill:#E2336D;" width="1.212" height="1.209"/>
			<rect x="166.718" y="14.117" style="fill:#E2336D;" width="1.212" height="1.209"/>
			<rect x="165.504" y="15.326" style="fill:#E2336D;" width="1.214" height="1.209"/>
			<rect x="165.504" y="14.117" style="fill:#E2336D;" width="1.214" height="1.209"/>
			<rect x="165.504" y="12.91" style="fill:#E2336D;" width="1.214" height="1.207"/>
			<rect x="164.29" y="14.117" style="fill:#E2336D;" width="1.214" height="1.209"/>
			<rect x="164.29" y="12.91" style="fill:#E2336D;" width="1.214" height="1.207"/>
		</g>
		<g id="heart_5_">
			<rect x="195.851" y="39.717" style="fill:#E2336D;" width="0.845" height="0.824"/>
			<rect x="195.851" y="38.894" style="fill:#E2336D;" width="0.845" height="0.823"/>
			<rect x="195.006" y="40.541" style="fill:#E2336D;" width="0.845" height="0.824"/>
			<rect x="195.006" y="39.717" style="fill:#E2336D;" width="0.845" height="0.824"/>
			<rect x="195.006" y="38.894" style="fill:#E2336D;" width="0.845" height="0.823"/>
			<rect x="194.163" y="41.365" style="fill:#E2336D;" width="0.843" height="0.823"/>
			<rect x="194.163" y="40.541" style="fill:#E2336D;" width="0.843" height="0.824"/>
			<rect x="194.163" y="39.717" style="fill:#E2336D;" width="0.843" height="0.824"/>
			<rect x="193.318" y="40.541" style="fill:#E2336D;" width="0.845" height="0.824"/>
			<rect x="193.318" y="39.717" style="fill:#E2336D;" width="0.845" height="0.824"/>
			<rect x="193.318" y="38.894" style="fill:#E2336D;" width="0.845" height="0.823"/>
			<rect x="192.473" y="39.717" style="fill:#E2336D;" width="0.845" height="0.824"/>
			<rect x="192.473" y="38.894" style="fill:#E2336D;" width="0.845" height="0.823"/>
		</g>
		<g id="heart_6_">
			<rect x="12.606" y="10.117" style="fill:#E2336D;" width="0.845" height="0.824"/>
			<rect x="12.606" y="9.294" style="fill:#E2336D;" width="0.845" height="0.823"/>
			<rect x="11.761" y="10.941" style="fill:#E2336D;" width="0.845" height="0.824"/>
			<rect x="11.761" y="10.117" style="fill:#E2336D;" width="0.845" height="0.824"/>
			<rect x="11.761" y="9.294" style="fill:#E2336D;" width="0.845" height="0.823"/>
			<rect x="10.918" y="11.765" style="fill:#E2336D;" width="0.843" height="0.823"/>
			<rect x="10.918" y="10.941" style="fill:#E2336D;" width="0.843" height="0.824"/>
			<rect x="10.918" y="10.117" style="fill:#E2336D;" width="0.843" height="0.824"/>
			<rect x="10.073" y="10.941" style="fill:#E2336D;" width="0.845" height="0.824"/>
			<rect x="10.073" y="10.117" style="fill:#E2336D;" width="0.845" height="0.824"/>
			<rect x="10.073" y="9.294" style="fill:#E2336D;" width="0.845" height="0.823"/>
			<rect x="9.229" y="10.117" style="fill:#E2336D;" width="0.845" height="0.824"/>
			<rect x="9.229" y="9.294" style="fill:#E2336D;" width="0.845" height="0.823"/>
		</g>
		<g>
			<g>
				<path style="fill:#003149;" d="M186.318,77.891h0.551v0.072h-0.551V77.891z M186.555,77.922h0.077v0.75h-0.077V77.922z"/>
				<path style="fill:#003149;" d="M186.945,77.891h0.077v0.781h-0.077V77.891z M187.315,78.334c0-0.049-0.013-0.088-0.039-0.115
				c-0.026-0.027-0.063-0.041-0.11-0.041c-0.046,0-0.081,0.012-0.107,0.036c-0.025,0.024-0.038,0.058-0.038,0.103l-0.011-0.108
				c0.02-0.037,0.046-0.063,0.078-0.079s0.07-0.024,0.113-0.024c0.061,0,0.107,0.02,0.14,0.059c0.033,0.04,0.05,0.096,0.05,0.168
				v0.339h-0.077V78.334z"/>
				<path style="fill:#003149;" d="M187.71,78.68c0,0-0.018-0.01-0.055-0.029c-0.036-0.02-0.064-0.048-0.084-0.085
				s-0.029-0.082-0.029-0.135v-0.063c0-0.055,0.009-0.102,0.028-0.141c0.018-0.039,0.045-0.069,0.08-0.089
				c0.035-0.02,0.077-0.031,0.127-0.031c0.047,0,0.086,0.01,0.119,0.03s0.058,0.049,0.076,0.088
				c0.017,0.039,0.026,0.085,0.026,0.139v0.064h-0.403v-0.07h0.331v-0.005c0-0.055-0.013-0.098-0.039-0.128
				c-0.026-0.03-0.063-0.045-0.11-0.045c-0.052,0-0.092,0.016-0.12,0.048c-0.028,0.032-0.042,0.077-0.042,0.135v0.071
				c0,0.056,0.015,0.099,0.045,0.13c0.03,0.031,0.073,0.046,0.127,0.046c0.026,0,0.051-0.005,0.077-0.016
				c0.025-0.011,0.048-0.026,0.067-0.046l0.053,0.051c-0.027,0.027-0.058,0.047-0.092,0.062c-0.034,0.015-0.069,0.022-0.104,0.022
				C187.736,78.68,187.71,78.68,187.71,78.68z"/>
				<path style="fill:#003149;" d="M188.348,77.891h0.077v0.781h-0.077V77.891z M188.413,78.6h0.214c0.066,0,0.115-0.012,0.145-0.037
				c0.03-0.025,0.045-0.06,0.045-0.105v-0.002c0-0.031-0.006-0.057-0.017-0.08c-0.011-0.022-0.029-0.039-0.053-0.051
				c-0.024-0.012-0.055-0.018-0.093-0.018h-0.241v-0.072h0.241c0.051,0,0.089-0.011,0.115-0.034c0.026-0.023,0.038-0.056,0.038-0.1
				c0-0.046-0.014-0.081-0.042-0.104c-0.028-0.023-0.07-0.034-0.126-0.034h-0.226v-0.072h0.243c0.05,0,0.093,0.009,0.127,0.026
				c0.034,0.017,0.059,0.042,0.076,0.073c0.017,0.031,0.025,0.069,0.025,0.113c0,0.027-0.005,0.051-0.016,0.075
				c-0.01,0.023-0.026,0.044-0.048,0.06c-0.021,0.017-0.048,0.028-0.079,0.034c0.031,0.005,0.059,0.016,0.082,0.034
				c0.023,0.018,0.04,0.04,0.053,0.066c0.012,0.027,0.018,0.055,0.018,0.086v0.002c0,0.042-0.009,0.08-0.028,0.112
				c-0.019,0.032-0.045,0.057-0.08,0.075c-0.035,0.018-0.075,0.026-0.121,0.026h-0.253V78.6z"/>
				<path style="fill:#003149;" d="M189.199,78.68c0,0-0.018-0.01-0.055-0.029c-0.037-0.02-0.064-0.048-0.084-0.085
				s-0.029-0.082-0.029-0.135v-0.063c0-0.055,0.009-0.102,0.028-0.141c0.018-0.039,0.045-0.069,0.08-0.089
				c0.035-0.02,0.077-0.031,0.127-0.031c0.047,0,0.086,0.01,0.119,0.03s0.058,0.049,0.076,0.088
				c0.017,0.039,0.026,0.085,0.026,0.139v0.064h-0.403v-0.07h0.331v-0.005c0-0.055-0.013-0.098-0.039-0.128
				c-0.026-0.03-0.063-0.045-0.11-0.045c-0.052,0-0.092,0.016-0.12,0.048c-0.028,0.032-0.042,0.077-0.042,0.135v0.071
				c0,0.056,0.015,0.099,0.045,0.13c0.03,0.031,0.073,0.046,0.127,0.046c0.026,0,0.051-0.005,0.077-0.016
				c0.025-0.011,0.048-0.026,0.067-0.046l0.053,0.051c-0.027,0.027-0.058,0.047-0.092,0.062c-0.034,0.015-0.069,0.022-0.104,0.022
				C189.224,78.68,189.199,78.68,189.199,78.68z"/>
				<path style="fill:#003149;" d="M189.784,78.68c0,0-0.014-0.003-0.042-0.009c-0.028-0.006-0.055-0.015-0.079-0.026
				c-0.024-0.011-0.046-0.025-0.065-0.041l0.045-0.054c0.03,0.02,0.062,0.036,0.095,0.048c0.033,0.011,0.064,0.017,0.093,0.017
				c0.053,0,0.095-0.009,0.124-0.027c0.029-0.018,0.044-0.044,0.044-0.077c0-0.024-0.007-0.043-0.021-0.055s-0.032-0.02-0.053-0.025
				c-0.022-0.004-0.051-0.008-0.09-0.011c-0.004,0-0.007-0.001-0.011-0.001c-0.004,0-0.007,0-0.011-0.001c-0.001,0-0.003,0-0.004,0
				c-0.001,0-0.003,0-0.004,0c-0.037-0.004-0.068-0.009-0.092-0.016c-0.025-0.007-0.045-0.021-0.062-0.04
				c-0.017-0.02-0.025-0.048-0.025-0.085c0-0.036,0.009-0.066,0.026-0.091c0.017-0.025,0.043-0.044,0.076-0.057
				c0.033-0.013,0.074-0.02,0.121-0.02c0.024,0,0.049,0.002,0.073,0.007c0.024,0.005,0.048,0.012,0.07,0.021s0.043,0.02,0.062,0.033
				l-0.045,0.053c-0.027-0.015-0.054-0.027-0.083-0.036c-0.029-0.008-0.056-0.013-0.081-0.013c-0.047,0-0.083,0.009-0.109,0.026
				c-0.026,0.018-0.039,0.042-0.039,0.074c0,0.022,0.007,0.039,0.021,0.05s0.032,0.018,0.053,0.022
				c0.021,0.004,0.051,0.006,0.088,0.009c0.001,0,0.003,0,0.005,0c0.002,0,0.003,0,0.005,0c0.001,0,0.002,0,0.003,0
				c0.001,0,0.002,0,0.003,0.001c0.039,0.002,0.072,0.007,0.1,0.015c0.027,0.007,0.05,0.022,0.069,0.045
				c0.019,0.022,0.028,0.054,0.028,0.096c0,0.036-0.009,0.067-0.028,0.092c-0.019,0.025-0.046,0.045-0.082,0.058
				c-0.036,0.013-0.079,0.02-0.129,0.02C189.799,78.68,189.784,78.68,189.784,78.68z"/>
				<path style="fill:#003149;" d="M190.165,78.114h0.251v0.067h-0.251V78.114z M190.254,78.637c-0.021-0.025-0.031-0.062-0.031-0.11
				v-0.575h0.077v0.576c0,0.024,0.005,0.042,0.016,0.055c0.011,0.013,0.027,0.019,0.048,0.019h0.053v0.072h-0.063
				C190.308,78.675,190.275,78.662,190.254,78.637z"/>
				<path style="fill:#003149;" d="M190.766,77.891h0.077v0.781h-0.077V77.891z M190.818,78.249h0.466v0.075h-0.466V78.249z
				 M191.242,77.891h0.077v0.781h-0.077V77.891z"/>
				<path style="fill:#003149;" d="M191.863,78.114h0.082l-0.22,0.558h-0.061l-0.22-0.558h0.082l0.169,0.457L191.863,78.114z"/>
				<path style="fill:#003149;" d="M192.063,77.891h0.077v0.781h-0.077V77.891z M192.115,78.249h0.466v0.075h-0.466V78.249z
				 M192.539,77.891h0.077v0.781h-0.077V77.891z"/>
				<path style="fill:#003149;" d="M193.132,78.68c0,0-0.018-0.009-0.054-0.027c-0.036-0.018-0.063-0.045-0.08-0.081
				c-0.018-0.036-0.027-0.081-0.027-0.135v-0.092c0-0.053,0.009-0.098,0.027-0.133c0.018-0.035,0.045-0.062,0.08-0.08
				c0.036-0.018,0.08-0.027,0.134-0.027c0.03,0,0.058,0.003,0.083,0.01c0.025,0.007,0.047,0.016,0.067,0.03
				c0.02,0.013,0.037,0.03,0.052,0.05l-0.057,0.051c-0.019-0.023-0.04-0.04-0.064-0.051c-0.024-0.011-0.05-0.017-0.079-0.017
				c-0.056,0-0.097,0.014-0.124,0.042c-0.027,0.028-0.041,0.07-0.041,0.126v0.092c0,0.057,0.014,0.1,0.041,0.128
				c0.028,0.028,0.069,0.042,0.124,0.042c0.03,0,0.058-0.005,0.083-0.016c0.025-0.011,0.047-0.027,0.067-0.049l0.05,0.049
				c-0.015,0.02-0.032,0.036-0.052,0.049c-0.02,0.013-0.042,0.023-0.067,0.029c-0.025,0.006-0.053,0.01-0.083,0.01
				C193.159,78.68,193.132,78.68,193.132,78.68z"/>
				<path style="fill:#003149;" d="M193.625,78.652c-0.034-0.019-0.061-0.047-0.079-0.083c-0.018-0.036-0.027-0.08-0.027-0.131
				v-0.091c0-0.051,0.009-0.094,0.027-0.13c0.018-0.036,0.044-0.063,0.079-0.082s0.076-0.028,0.124-0.028
				c0.048,0,0.09,0.009,0.124,0.028c0.034,0.019,0.061,0.046,0.079,0.082c0.018,0.036,0.027,0.079,0.027,0.13v0.092
				c0,0.051-0.009,0.094-0.027,0.13c-0.018,0.036-0.044,0.064-0.079,0.082c-0.034,0.019-0.076,0.028-0.124,0.028
				C193.701,78.68,193.659,78.671,193.625,78.652z M193.862,78.564c0.027-0.03,0.04-0.071,0.04-0.125v-0.092
				c0-0.053-0.013-0.095-0.04-0.124c-0.027-0.029-0.064-0.044-0.113-0.044c-0.048,0-0.086,0.015-0.112,0.044
				c-0.027,0.029-0.04,0.071-0.04,0.124v0.092c0,0.054,0.013,0.095,0.04,0.125c0.027,0.03,0.064,0.044,0.112,0.044
				C193.797,78.608,193.835,78.593,193.862,78.564z"/>
				<path style="fill:#003149;" d="M194.135,78.114h0.077v0.558h-0.077V78.114z M194.484,78.334c0-0.049-0.012-0.088-0.035-0.115
				c-0.023-0.027-0.057-0.041-0.1-0.041c-0.043,0-0.077,0.012-0.101,0.037c-0.024,0.025-0.036,0.059-0.036,0.104l-0.011-0.107
				c0.019-0.037,0.043-0.064,0.073-0.081c0.03-0.016,0.065-0.025,0.105-0.025c0.038,0,0.071,0.009,0.099,0.027
				c0.027,0.018,0.048,0.044,0.062,0.078c0.014,0.034,0.021,0.075,0.021,0.123v0.339h-0.077V78.334z M194.833,78.334
				c0-0.049-0.012-0.088-0.035-0.115c-0.024-0.027-0.057-0.041-0.1-0.041c-0.043,0-0.077,0.013-0.101,0.04
				c-0.024,0.027-0.036,0.064-0.036,0.112l-0.033-0.081c0.018-0.046,0.043-0.082,0.075-0.106c0.032-0.025,0.07-0.037,0.115-0.037
				c0.04,0,0.075,0.009,0.104,0.027c0.029,0.018,0.051,0.044,0.066,0.078c0.015,0.034,0.023,0.075,0.023,0.123v0.339h-0.077V78.334z
				"/>
				<path style="fill:#003149;" d="M195.077,78.114h0.077v0.558h-0.077V78.114z M195.427,78.334c0-0.049-0.012-0.088-0.035-0.115
				c-0.023-0.027-0.057-0.041-0.1-0.041c-0.043,0-0.077,0.012-0.101,0.037c-0.024,0.025-0.036,0.059-0.036,0.104l-0.011-0.107
				c0.019-0.037,0.043-0.064,0.073-0.081c0.03-0.016,0.065-0.025,0.105-0.025c0.038,0,0.071,0.009,0.099,0.027
				c0.027,0.018,0.048,0.044,0.062,0.078c0.014,0.034,0.021,0.075,0.021,0.123v0.339h-0.077V78.334z M195.776,78.334
				c0-0.049-0.012-0.088-0.035-0.115c-0.024-0.027-0.057-0.041-0.1-0.041c-0.043,0-0.077,0.013-0.101,0.04
				c-0.024,0.027-0.036,0.064-0.036,0.112l-0.033-0.081c0.018-0.046,0.043-0.082,0.075-0.106c0.032-0.025,0.07-0.037,0.115-0.037
				c0.04,0,0.075,0.009,0.104,0.027c0.029,0.018,0.051,0.044,0.066,0.078c0.015,0.034,0.023,0.075,0.023,0.123v0.339h-0.077V78.334z
				"/>
				<path style="fill:#003149;" d="M196.097,78.453c0,0.049,0.013,0.087,0.038,0.114c0.025,0.027,0.061,0.041,0.108,0.041
				c0.046,0,0.082-0.012,0.107-0.037c0.025-0.025,0.038-0.06,0.038-0.105l0.008,0.117c-0.014,0.028-0.036,0.051-0.067,0.069
				c-0.031,0.019-0.07,0.028-0.116,0.028c-0.062,0-0.109-0.02-0.143-0.059c-0.034-0.04-0.05-0.095-0.05-0.167v-0.339h0.077V78.453z
				 M196.388,78.114h0.077v0.558h-0.077V78.114z"/>
				<path style="fill:#003149;" d="M196.632,78.114h0.077v0.558h-0.077V78.114z M197.003,78.334c0-0.049-0.013-0.088-0.039-0.115
				c-0.026-0.027-0.063-0.041-0.11-0.041c-0.046,0-0.081,0.012-0.107,0.036c-0.025,0.024-0.038,0.058-0.038,0.103l-0.011-0.108
				c0.02-0.037,0.046-0.063,0.078-0.079c0.033-0.016,0.07-0.024,0.113-0.024c0.061,0,0.107,0.02,0.14,0.059
				c0.033,0.04,0.05,0.096,0.05,0.168v0.339h-0.077V78.334z"/>
				<path style="fill:#003149;" d="M197.263,77.891h0.077v0.077h-0.077V77.891z M197.263,78.114h0.077v0.558h-0.077V78.114z"/>
				<path style="fill:#003149;" d="M197.48,78.114h0.251v0.067h-0.251V78.114z M197.569,78.637c-0.021-0.025-0.031-0.062-0.031-0.11
				v-0.575h0.077v0.576c0,0.024,0.005,0.042,0.016,0.055c0.011,0.013,0.027,0.019,0.048,0.019h0.053v0.072h-0.063
				C197.623,78.675,197.59,78.662,197.569,78.637z"/>
				<path style="fill:#003149;" d="M197.823,78.114h0.08l0.183,0.517l-0.04,0.086L197.823,78.114z M198.316,78.114l-0.237,0.688
				c-0.009,0.025-0.02,0.046-0.034,0.06c-0.014,0.015-0.031,0.026-0.052,0.032c-0.02,0.006-0.045,0.01-0.075,0.01h-0.022v-0.073
				h0.022c0.029,0,0.051-0.007,0.068-0.02c0.017-0.013,0.032-0.036,0.044-0.067l0.206-0.63H198.316z"/>
			</g>
			<g>
				<g>
					<polygon style="fill:#003149;" points="187.532,76.788 187.532,73.871 187.532,73.803 187.464,73.803 186.386,73.803 
					186.318,73.803 186.318,73.871 186.318,77.442 186.318,77.51 186.386,77.51 188.956,77.51 189.024,77.51 189.024,77.442 
					189.024,76.856 189.024,76.788 188.956,76.788 				"/>
					<polygon style="fill:#003149;" points="193.732,73.803 193.665,73.803 193.665,73.871 193.665,75.3 193.382,75.3 
					193.382,74.868 193.382,74.8 193.314,74.8 192.886,74.8 192.886,73.871 192.886,73.803 192.818,73.803 191.74,73.803 
					191.672,73.803 191.672,73.871 191.672,77.442 191.672,77.51 191.74,77.51 192.818,77.51 192.886,77.51 192.886,77.442 
					192.886,76.013 193.168,76.013 193.168,76.446 193.168,76.514 193.236,76.514 193.665,76.514 193.665,77.442 193.665,77.51 
					193.732,77.51 194.81,77.51 194.878,77.51 194.878,77.442 194.878,73.871 194.878,73.803 194.81,73.803 				"/>
					<polygon style="fill:#003149;" points="198.249,73.803 197.171,73.803 197.103,73.803 197.103,73.871 197.103,74.304 
					196.67,74.304 196.602,74.304 196.602,74.371 196.602,74.8 196.324,74.8 196.324,73.871 196.324,73.803 196.256,73.803 
					195.178,73.803 195.11,73.803 195.11,73.871 195.11,77.442 195.11,77.51 195.178,77.51 196.256,77.51 196.324,77.51 
					196.324,77.442 196.324,76.514 196.602,76.514 196.602,76.942 196.602,77.01 196.67,77.01 197.103,77.01 197.103,77.442 
					197.103,77.51 197.171,77.51 198.249,77.51 198.316,77.51 198.316,77.442 198.316,76.856 198.316,76.788 198.249,76.788 
					197.816,76.788 197.816,76.364 197.816,76.296 197.748,76.296 197.32,76.296 197.32,75.864 197.32,75.796 197.252,75.796 
					196.808,75.796 196.808,75.517 197.252,75.517 197.32,75.517 197.32,75.449 197.32,75.017 197.748,75.017 197.816,75.017 
					197.816,74.949 197.816,74.525 198.249,74.525 198.316,74.525 198.316,74.457 198.316,73.871 198.316,73.803 				"/>
					<polygon style="fill:#003149;" points="190.909,73.803 189.839,73.803 189.442,73.803 189.374,73.803 189.374,73.871 
					189.374,74.435 189.374,74.503 189.442,74.503 189.771,74.503 189.771,76.811 189.442,76.811 189.374,76.811 189.374,76.878 
					189.374,77.442 189.374,77.51 189.442,77.51 189.839,77.51 190.909,77.51 191.306,77.51 191.374,77.51 191.374,77.442 
					191.374,76.878 191.374,76.811 191.306,76.811 190.977,76.811 190.977,74.503 191.306,74.503 191.374,74.503 191.374,74.435 
					191.374,73.871 191.374,73.803 191.306,73.803 				"/>
				</g>
				<polygon style="fill:#1BC4E3;" points="186.352,77.36 186.352,73.722 187.498,73.722 187.498,76.707 188.99,76.707 188.99,77.36 
							"/>
				<path style="fill:#003149;" d="M187.464,73.756v2.985h1.492v0.586h-2.57v-3.571H187.464 M187.532,73.688h-0.068h-1.078h-0.068
				v0.068v3.571v0.068h0.068h2.57h0.068v-0.068v-0.586v-0.068h-0.068h-1.425v-2.917V73.688L187.532,73.688z"/>
				<g>
					<polygon style="fill:#1BC4E3;" points="193.698,77.36 193.698,76.364 193.202,76.364 193.202,75.864 192.852,75.864 
					192.852,77.36 191.706,77.36 191.706,73.722 192.852,73.722 192.852,74.718 193.348,74.718 193.348,75.218 193.698,75.218 
					193.698,73.722 194.844,73.722 194.844,77.36 				"/>
					<path style="fill:#003149;" d="M194.81,73.756v3.571h-1.078V76.33h-0.496v-0.5h-0.418v1.496h-1.078v-3.571h1.078v0.996h0.496
					v0.5h0.418v-1.496H194.81 M194.878,73.688h-0.068h-1.078h-0.068v0.068v1.429h-0.283v-0.432v-0.068h-0.068h-0.428v-0.928v-0.068
					h-0.068h-1.078h-0.068v0.068v3.571v0.068h0.068h1.078h0.068v-0.068v-1.429h0.283v0.432v0.068h0.068h0.428v0.928v0.068h0.068
					h1.078h0.068v-0.068v-3.571V73.688L194.878,73.688z"/>
				</g>
				<g>
					<polygon style="fill:#1BC4E3;" points="197.137,77.36 197.137,76.86 196.636,76.86 196.636,76.364 196.29,76.364 196.29,77.36 
					195.144,77.36 195.144,73.722 196.29,73.722 196.29,74.718 196.636,74.718 196.636,74.222 197.137,74.222 197.137,73.722 
					198.283,73.722 198.283,74.375 197.782,74.375 197.782,74.868 197.286,74.868 197.286,75.368 196.774,75.368 196.774,75.714 
					197.286,75.714 197.286,76.215 197.782,76.215 197.782,76.707 198.283,76.707 198.283,77.36 				"/>
					<path style="fill:#003149;" d="M198.249,73.756v0.586h-0.5v0.492h-0.496v0.5h-0.512v0.414h0.512v0.5h0.496v0.492h0.5v0.586
					h-1.078v-0.5h-0.5V76.33h-0.414v0.996h-1.078v-3.571h1.078v0.996h0.414v-0.496h0.5v-0.5H198.249 M198.316,73.688h-0.068h-1.078
					h-0.068v0.068v0.432h-0.432h-0.068v0.068v0.428h-0.279v-0.928v-0.068h-0.068h-1.078h-0.068v0.068v3.571v0.068h0.068h1.078h0.068
					v-0.068v-0.928h0.279v0.428v0.068h0.068h0.432v0.432v0.068h0.068h1.078h0.068v-0.068v-0.586v-0.068h-0.068h-0.432v-0.424v-0.068
					h-0.068h-0.428v-0.432V75.68h-0.068h-0.444v-0.279h0.444h0.068v-0.068v-0.432h0.428h0.068v-0.068v-0.424h0.432h0.068v-0.068
					v-0.586V73.688L198.316,73.688z"/>
				</g>
				<g>
					<polygon style="fill:#1BC4E3;" points="189.408,77.36 189.408,76.729 189.805,76.729 189.805,74.353 189.408,74.353 
					189.408,73.722 191.34,73.722 191.34,74.353 190.943,74.353 190.943,76.729 191.34,76.729 191.34,77.36 				"/>
					<path style="fill:#003149;" d="M191.306,73.756v0.564h-0.397v2.443h0.397v0.564h-0.397h-1.07h-0.397v-0.564h0.397v-2.443h-0.397
					v-0.564h0.397h1.07H191.306 M191.374,73.688h-0.068h-0.397h-1.07h-0.397h-0.068v0.068v0.564v0.068h0.068h0.33v2.308h-0.33
					h-0.068v0.068v0.564v0.068h0.068h0.397h1.07h0.397h0.068v-0.068v-0.564v-0.068h-0.068h-0.33v-2.308h0.33h0.068v-0.068v-0.564
					V73.688L191.374,73.688z"/>
				</g>
			</g>
		</g>
		<g>
			<path d="M199.066,1.007v78.008H1.018V1.007H199.066 M200.066,0.007H0.018v80.008h200.048V0.007L200.066,0.007z"/>
		</g>
		<g>
			<g>
				<rect x="82.014" y="36.1" style="fill:#FFFFFF;" width="2.073" height="1.936"/>
				<g>
					<path style="fill:#DBDBDB;" d="M124.396,30.294v-1.935v-1.936v-1.935h-2.072v-1.936h-2.073v-1.935h-2.073v-1.935h-2.072v-1.936
					h-2.072v-1.935h-2.073h-2.073v-1.936h-2.072h-2.073h-2.073h-2.072h-5.072H94.45h-2.072h-2.073v1.936h-2.073h-2.072v1.935h-2.072
					v1.936h-2.073v1.935h-2.073v1.935h-2.072v1.936v1.935h-2.073v1.936v1.935h-2.073v1.935v1.936V36.1v1.936v1.935v1.935v1.936
					v1.935v1.936v1.935h2.073v1.935v1.936h2.073v1.935v1.936h2.072v1.935h2.073v1.935h2.073v1.936h2.072v1.935h2.072h2.073v1.935
					h2.073h2.072h2.074h5.072h2.072h2.073h2.073h2.072v-1.935h2.073h2.073v-1.935h2.072v-1.936h2.072v-1.935h2.073v-1.935h2.073
					v-1.936h2.072v-1.935v-1.936h2.074v-1.935v-1.935v-1.936v-1.935v-1.936v-1.935v-1.935V36.1v-1.935v-1.936v-1.935H124.396z
					 M82.014,32.229v-1.935v-1.935h2.073v-1.936h2.072v-1.935h2.072v-1.936h2.073v-1.935h2.073h2.072h2.074h5.072h2.072h2.073h2.073
					h2.072v1.935h2.073v1.936h2.073v1.935h2.072v1.936h2.072v1.935v1.935h2.073v1.936V36.1v1.936v1.935v1.935v1.936v1.935v1.936
					h-2.073v1.935v1.935h-2.072v1.936h-2.072v1.935h-2.073v1.936h-2.073v1.935h-2.072h-2.073h-2.073h-2.072h-5.072H94.45h-2.072
					h-2.073v-1.935h-2.073v-1.936h-2.072v-1.935h-2.072v-1.936h-2.073v-1.935v-1.935h-2.073v-1.936v-1.935v-1.936v-1.935v-1.935
					V36.1v-1.935v-1.936H82.014z"/>
					<polygon style="fill:#DBDBDB;" points="86.159,30.294 84.087,30.294 84.087,32.229 84.087,34.165 84.087,36.1 84.087,38.036 
					84.087,39.971 84.087,41.906 84.087,43.841 84.087,45.776 86.159,45.776 86.159,47.712 86.159,49.647 88.232,49.647 
					88.232,51.582 90.305,51.582 90.305,53.518 92.378,53.518 94.45,53.518 94.45,55.453 96.524,55.453 101.596,55.453 
					103.668,55.453 105.741,55.453 107.814,55.453 107.814,53.518 109.887,53.518 111.96,53.518 111.96,51.582 114.033,51.582 
					114.033,49.647 116.105,49.647 116.105,47.712 116.105,45.776 118.177,45.776 118.177,43.841 118.177,41.906 118.177,39.971 
					118.177,38.036 118.177,36.1 118.177,34.165 116.105,34.165 116.105,32.229 116.105,30.294 116.105,28.359 114.033,28.359 
					114.033,26.423 111.96,26.423 111.96,24.489 109.887,24.489 107.814,24.489 107.814,22.553 105.741,22.553 103.668,22.553 
					101.596,22.553 96.524,22.553 94.45,22.553 92.378,22.553 92.378,24.489 90.305,24.489 88.232,24.489 88.232,26.423 
					86.159,26.423 86.159,28.359 				"/>
				</g>
				<g>
					<polygon style="fill:#6B6B6B;" points="109.887,65.129 109.887,67.064 107.814,67.064 105.742,67.064 103.668,67.064 
					101.596,67.064 96.524,67.064 94.45,67.064 92.378,67.064 90.305,67.064 90.305,69 92.378,69 94.45,69 96.524,69 101.596,69 
					103.668,69 105.742,69 107.814,69 109.887,69 109.887,67.065 111.96,67.065 114.033,67.065 114.033,65.129 111.96,65.129 				
					"/>
					<rect x="114.033" y="63.194" style="fill:#6B6B6B;" width="2.072" height="1.935"/>
					<polygon style="fill:#6B6B6B;" points="118.177,61.258 116.105,61.258 116.105,63.194 118.177,63.194 120.25,63.194 
					120.25,61.258 120.25,59.323 118.177,59.323 				"/>
					<rect x="120.25" y="57.388" style="fill:#6B6B6B;" width="2.073" height="1.935"/>
					<rect x="122.323" y="55.453" style="fill:#6B6B6B;" width="2.072" height="1.936"/>
					<polygon style="fill:#6B6B6B;" points="124.396,53.518 124.396,55.453 126.47,55.453 126.47,53.518 126.47,51.582 
					124.396,51.582 				"/>
					<polygon style="fill:#6B6B6B;" points="126.47,30.237 126.47,32.372 126.47,34.506 126.47,36.641 126.47,38.776 126.47,40.91 
					126.47,43.045 126.47,45.179 126.47,47.314 126.47,49.448 126.47,51.582 128.542,51.582 128.542,49.448 128.542,47.314 
					128.542,45.179 128.542,43.045 128.542,40.91 128.542,38.776 128.542,36.641 128.542,34.506 128.542,32.372 128.542,30.237 				
					"/>
					<polygon style="fill:#6B6B6B;" points="124.396,28.359 124.396,30.294 126.47,30.294 126.47,28.359 126.47,26.423 
					124.396,26.423 				"/>
					<rect x="122.323" y="22.553" style="fill:#6B6B6B;" width="2.072" height="3.885"/>
					<rect x="111.96" y="53.518" style="fill:#6B6B6B;" width="2.073" height="1.935"/>
					<polygon style="fill:#6B6B6B;" points="116.105,32.229 116.105,34.165 118.177,34.165 118.177,34.165 118.177,36.1 
					118.177,38.036 118.177,39.971 118.177,41.906 118.177,43.841 118.177,45.776 118.177,45.776 116.105,45.776 116.105,47.711 
					116.105,49.647 114.033,49.647 114.033,51.582 114.033,53.518 116.105,53.518 116.105,51.582 118.177,51.582 118.177,49.647 
					118.177,47.712 120.25,47.712 120.25,45.776 120.25,43.841 120.25,41.906 120.25,39.971 120.25,38.036 120.25,36.1 
					120.25,34.165 120.25,32.229 118.177,32.229 118.177,32.229 118.177,30.294 118.177,28.359 116.105,28.359 116.105,30.294 				
					"/>
					<rect x="114.033" y="26.423" style="fill:#6B6B6B;" width="2.072" height="1.936"/>
					<rect x="111.96" y="24.489" style="fill:#6B6B6B;" width="2.073" height="1.935"/>
					<rect x="120.25" y="20.618" style="fill:#6B6B6B;" width="2.073" height="1.935"/>
					<rect x="118.177" y="18.683" style="fill:#6B6B6B;" width="2.073" height="1.935"/>
					<rect x="116.105" y="16.747" style="fill:#6B6B6B;" width="2.072" height="1.936"/>
					<rect x="114.033" y="14.812" style="fill:#6B6B6B;" width="2.072" height="1.935"/>
					<polygon style="fill:#6B6B6B;" points="109.887,14.812 111.96,14.812 114.033,14.812 114.033,12.876 111.96,12.876 
					109.887,12.876 				"/>
					<polygon style="fill:#6B6B6B;" points="88.232,65.129 86.159,65.129 86.159,67.064 88.232,67.064 90.305,67.064 90.305,65.129 
									"/>
					<rect x="84.087" y="63.194" style="fill:#6B6B6B;" width="2.072" height="1.935"/>
					<polygon style="fill:#6B6B6B;" points="82.014,61.258 82.014,59.323 79.941,59.323 79.941,61.258 79.941,63.194 82.014,63.194 
					84.087,63.194 84.087,61.258 				"/>
					<rect x="77.869" y="57.388" style="fill:#6B6B6B;" width="2.072" height="1.936"/>
					<polygon style="fill:#6B6B6B;" points="92.378,59.323 94.45,59.323 96.524,59.323 101.596,59.323 103.668,59.323 
					105.742,59.323 107.814,59.323 109.887,59.323 109.887,57.388 111.96,57.388 111.96,55.453 109.887,55.453 107.814,55.453 
					107.814,57.388 105.742,57.388 103.668,57.388 101.596,57.388 96.524,57.388 94.45,57.388 92.378,57.388 92.378,55.453 
					90.305,55.453 88.232,55.453 88.232,57.388 90.305,57.388 90.305,59.323 				"/>
					<rect x="86.159" y="53.518" style="fill:#6B6B6B;" width="2.072" height="1.935"/>
					<polygon style="fill:#6B6B6B;" points="77.869,53.518 75.796,53.518 75.796,55.453 75.796,57.388 77.869,57.388 77.869,55.453 
									"/>
					<polygon style="fill:#6B6B6B;" points="75.796,49.647 73.723,49.647 73.723,51.582 73.723,53.518 75.796,53.518 75.796,51.582 
									"/>
					<polygon style="fill:#6B6B6B;" points="73.723,47.146 73.723,44.721 73.723,42.296 73.723,39.871 73.723,37.447 73.723,35.021 
					73.723,32.596 73.723,30.171 71.651,30.171 71.651,32.596 71.651,35.021 71.651,37.447 71.651,39.871 71.651,42.296 
					71.651,44.721 71.651,47.146 71.651,49.571 73.723,49.571 				"/>
					<polygon style="fill:#6B6B6B;" points="86.159,49.647 84.087,49.647 84.087,47.711 84.087,45.776 82.014,45.776 82.014,43.841 
					82.014,41.906 82.014,39.971 82.014,38.036 82.014,36.1 82.014,34.165 84.087,34.165 84.087,32.229 84.087,30.294 
					86.159,30.294 86.159,28.359 86.159,26.423 84.087,26.423 84.087,28.359 82.014,28.359 82.014,30.294 82.014,32.229 
					79.941,32.229 79.941,34.165 79.941,36.1 79.941,38.036 79.941,39.971 79.941,41.906 79.941,43.841 79.941,45.776 
					79.941,47.711 82.014,47.711 82.014,49.647 82.014,51.582 84.087,51.582 84.087,53.518 86.159,53.518 86.159,51.582 				"/>
					<polygon style="fill:#6B6B6B;" points="75.796,28.359 75.796,26.423 73.723,26.423 73.723,28.359 73.723,30.294 75.796,30.294 
									"/>
					<rect x="86.159" y="24.489" style="fill:#6B6B6B;" width="2.072" height="1.935"/>
					<polygon style="fill:#6B6B6B;" points="77.869,24.489 77.869,22.553 75.796,22.553 75.796,24.489 75.796,26.423 77.869,26.423 
									"/>
					<polygon style="fill:#6B6B6B;" points="92.378,24.489 92.378,22.553 94.45,22.553 96.524,22.553 101.596,22.553 103.668,22.553 
					105.742,22.553 107.814,22.553 107.814,24.489 109.887,24.489 111.96,24.489 111.96,22.553 109.887,22.553 109.887,20.618 
					107.814,20.618 105.742,20.618 103.668,20.618 101.596,20.618 96.524,20.618 94.45,20.618 92.378,20.618 90.305,20.618 
					90.305,22.553 88.232,22.553 88.232,24.489 90.305,24.489 				"/>
					<rect x="77.869" y="20.618" style="fill:#6B6B6B;" width="2.072" height="1.935"/>
					<rect x="79.941" y="18.683" style="fill:#6B6B6B;" width="2.073" height="1.935"/>
					<rect x="82.014" y="16.747" style="fill:#6B6B6B;" width="2.073" height="1.936"/>
					<rect x="84.087" y="14.812" style="fill:#6B6B6B;" width="2.072" height="1.935"/>
					<polygon style="fill:#6B6B6B;" points="90.305,14.812 90.305,12.876 88.232,12.876 86.159,12.876 86.159,14.812 88.232,14.812 
									"/>
					<polygon style="fill:#6B6B6B;" points="94.45,12.876 96.524,12.876 101.596,12.876 103.668,12.876 105.742,12.876 
					107.814,12.876 109.887,12.876 109.887,10.941 107.814,10.941 105.742,10.941 103.668,10.941 101.596,10.941 96.524,10.941 
					94.45,10.941 92.378,10.941 90.305,10.941 90.305,12.876 92.378,12.876 				"/>
				</g>
				<g>
					<polygon style="fill:#FFFFFF;" points="103.668,55.453 101.596,55.453 96.524,55.453 94.45,55.453 94.45,53.518 92.378,53.518 
					90.305,53.518 90.305,51.582 88.232,51.582 88.232,49.647 86.159,49.647 86.159,51.582 86.159,53.518 88.232,53.518 
					88.232,55.453 90.305,55.453 92.378,55.453 92.378,57.388 94.45,57.388 96.524,57.388 101.596,57.388 103.668,57.388 
					105.741,57.388 107.814,57.388 107.814,55.453 105.741,55.453 				"/>
					<polygon style="fill:#FFFFFF;" points="107.814,53.518 107.814,55.453 109.887,55.453 111.96,55.453 111.96,53.518 
					109.887,53.518 				"/>
					<rect x="111.96" y="51.582" style="fill:#FFFFFF;" width="2.073" height="1.936"/>
					<polygon style="fill:#FFFFFF;" points="86.159,45.776 84.087,45.776 84.087,47.712 84.087,49.647 86.159,49.647 86.159,47.712 
									"/>
					<polygon style="fill:#FFFFFF;" points="84.087,41.906 84.087,39.971 84.087,38.036 82.014,38.036 82.014,39.971 82.014,41.906 
					82.014,43.841 82.014,45.776 84.087,45.776 84.087,43.841 				"/>
					<rect x="82.014" y="34.165" style="fill:#FFFFFF;" width="2.073" height="1.935"/>
				</g>
			</g>
			<g>
				<polygon style="fill:#6B6B6B;" points="98.884,32.755 100.957,32.755 106.03,32.755 108.102,32.755 108.102,30.82 106.03,30.82 
				100.957,30.82 98.884,30.82 96.811,30.82 94.738,30.82 94.738,32.755 96.811,32.755 			"/>
				<polygon style="fill:#6B6B6B;" points="94.738,34.849 94.738,32.775 92.803,32.775 92.803,34.849 92.803,36.921 92.803,38.994 
				94.738,38.994 94.738,36.921 			"/>
				<polygon style="fill:#6B6B6B;" points="98.96,40.93 101.059,40.93 106.195,40.93 106.195,38.995 101.059,38.995 98.96,38.995 
				96.862,38.995 94.763,38.995 94.763,40.93 96.862,40.93 			"/>
				<polygon style="fill:#6B6B6B;" points="108.127,43.024 108.127,40.95 106.192,40.95 106.192,43.024 106.192,45.096 
				106.192,47.169 108.127,47.169 108.127,45.096 			"/>
				<polygon style="fill:#6B6B6B;" points="97.017,49.121 99.091,49.121 104.163,49.121 106.235,49.121 106.235,47.186 
				104.163,47.186 99.091,47.186 97.017,47.186 94.945,47.186 92.872,47.186 92.872,49.121 94.945,49.121 			"/>
			</g>
		</g>
	</g>
</svg>
